<svg width="200" height="200" viewBox="0 0 200 200" fill="none" xmlns="http://www.w3.org/2000/svg">
<path d="M73.3321 126.839H126.668C137.065 126.839 142.238 121.566 142.238 111.119V65.5171H105.876C99.4471 65.5171 96.4342 62.4528 96.4342 56.0243V19.1607H73.3321C62.9864 19.1607 57.7621 24.4836 57.7621 34.9321V111.119C57.7621 121.615 62.9864 126.839 73.3321 126.839ZM106.028 58.6364H141.685C141.334 56.5771 139.876 54.5671 137.517 52.1071L109.793 23.9328C107.483 21.5221 105.374 20.065 103.264 19.7114V55.9257C103.264 57.7321 104.219 58.6364 106.028 58.6364ZM80.6649 87.265C78.6057 87.265 77.1485 85.8078 77.1485 83.8493C77.1485 81.8886 78.6057 80.4336 80.6628 80.4336H119.384C121.394 80.4336 122.952 81.8907 122.952 83.8471C122.952 85.8078 121.394 87.2628 119.386 87.2628L80.6649 87.265ZM80.6649 106.399C78.6057 106.399 77.1485 104.941 77.1485 102.983C77.1485 101.024 78.6057 99.5671 80.6628 99.5671H119.384C121.394 99.5671 122.952 101.024 122.952 102.983C122.952 104.941 121.394 106.399 119.386 106.399H80.6649Z" fill="#333333"/>
<rect x="66" y="143" width="68" height="44" rx="10" fill="#333333"/>
<path d="M87.5707 161.344C87.4911 160.599 87.1559 160.02 86.565 159.605C85.9798 159.19 85.2184 158.983 84.2809 158.983C83.6218 158.983 83.0565 159.082 82.5849 159.281C82.1133 159.48 81.7525 159.75 81.5025 160.091C81.2525 160.432 81.1246 160.821 81.119 161.259C81.119 161.622 81.2013 161.937 81.3661 162.205C81.5366 162.472 81.7667 162.699 82.0565 162.886C82.3462 163.068 82.6673 163.222 83.0195 163.347C83.3718 163.472 83.7269 163.577 84.0849 163.662L85.7212 164.071C86.3803 164.224 87.0138 164.432 87.6218 164.693C88.2354 164.955 88.7837 165.284 89.2667 165.682C89.7553 166.08 90.1417 166.56 90.4258 167.122C90.7099 167.685 90.8519 168.344 90.8519 169.099C90.8519 170.122 90.5906 171.023 90.0678 171.801C89.5451 172.574 88.7894 173.179 87.8008 173.616C86.8178 174.048 85.6275 174.264 84.2298 174.264C82.8718 174.264 81.6928 174.054 80.6928 173.634C79.6985 173.213 78.9201 172.599 78.3576 171.793C77.8008 170.986 77.4996 170.003 77.4542 168.844H80.565C80.6104 169.452 80.7979 169.957 81.1275 170.361C81.457 170.764 81.886 171.065 82.4144 171.264C82.9485 171.463 83.5451 171.562 84.2042 171.562C84.8917 171.562 85.494 171.46 86.011 171.256C86.5337 171.045 86.9428 170.756 87.2383 170.386C87.5337 170.011 87.6843 169.574 87.69 169.074C87.6843 168.619 87.5508 168.244 87.2894 167.949C87.0281 167.648 86.6616 167.398 86.19 167.199C85.7241 166.994 85.1786 166.812 84.5536 166.653L82.5678 166.142C81.1303 165.773 79.994 165.213 79.1587 164.463C78.3292 163.707 77.9144 162.705 77.9144 161.455C77.9144 160.426 78.1928 159.526 78.7496 158.753C79.3121 157.98 80.0763 157.381 81.0423 156.955C82.0082 156.523 83.1019 156.307 84.3235 156.307C85.5621 156.307 86.6474 156.523 87.5792 156.955C88.5167 157.381 89.2525 157.974 89.7866 158.736C90.3207 159.491 90.5962 160.361 90.6133 161.344H87.5707ZM92.9038 159.196V156.545H106.83V159.196H101.435V174H98.2987V159.196H92.9038ZM108.748 159.196V156.545H122.674V159.196H117.279V174H114.142V159.196H108.748Z" fill="white"/>
</svg>
