<svg width="141" height="174" viewBox="0 0 141 174" fill="none" xmlns="http://www.w3.org/2000/svg">
<path d="M105.5 15H35.5C30 15 25.5 19.5 25.5 25V95C25.5 100.5 30 105 35.5 105H105.5C111 105 115.5 100.5 115.5 95V25C115.5 19.5 111 15 105.5 15ZM58 57.5C58 61.5 54.5 65 50.5 65H45.5V75H38V45H50.5C54.5 45 58 48.5 58 52.5V57.5ZM83 67.5C83 71.5 79.5 75 75.5 75H63V45H75.5C79.5 45 83 48.5 83 52.5V67.5ZM103 52.5H95.5V57.5H103V65H95.5V75H88V45H103V52.5ZM70.5 52.5H75.5V67.5H70.5V52.5ZM45.5 52.5H50.5V57.5H45.5V52.5Z" fill="#333333"/>
<rect x="0.5" y="130" width="140" height="44" rx="10" fill="#333333"/>
<path d="M12.6786 161V143.545H19.2241C20.565 143.545 21.69 143.795 22.5991 144.295C23.5139 144.795 24.2042 145.483 24.6701 146.358C25.1417 147.227 25.3775 148.216 25.3775 149.324C25.3775 150.443 25.1417 151.437 24.6701 152.307C24.1985 153.176 23.5025 153.861 22.582 154.361C21.6616 154.855 20.5281 155.102 19.1815 155.102H14.8434V152.503H18.7553C19.5394 152.503 20.1815 152.366 20.6815 152.094C21.1815 151.821 21.5508 151.446 21.7894 150.969C22.0337 150.491 22.1559 149.943 22.1559 149.324C22.1559 148.705 22.0337 148.159 21.7894 147.688C21.5508 147.216 21.1786 146.849 20.6729 146.588C20.1729 146.321 19.5281 146.188 18.7383 146.188H15.8406V161H12.6786ZM34.0387 161H28.1239V143.545H34.158C35.891 143.545 37.3796 143.895 38.6239 144.594C39.8739 145.287 40.8342 146.284 41.5046 147.585C42.1751 148.886 42.5103 150.443 42.5103 152.256C42.5103 154.074 42.1722 155.636 41.4961 156.943C40.8256 158.25 39.8569 159.253 38.5898 159.952C37.3285 160.651 35.8114 161 34.0387 161ZM31.2859 158.264H33.8853C35.1012 158.264 36.1154 158.043 36.9279 157.599C37.7404 157.151 38.3512 156.483 38.7603 155.597C39.1694 154.705 39.3739 153.591 39.3739 152.256C39.3739 150.92 39.1694 149.812 38.7603 148.932C38.3512 148.045 37.7461 147.384 36.945 146.946C36.1495 146.503 35.1609 146.281 33.979 146.281H31.2859V158.264ZM45.5146 161V143.545H56.6964V146.196H48.6765V150.935H55.9293V153.585H48.6765V161H45.5146ZM69.2086 152.192H72.4006V158.408H69.2086V152.192ZM77.2726 152.192H80.4646V158.408H77.2726V152.192ZM64.7926 157.952H84.9286V160.544H64.7926V157.952ZM74.8246 141.992C76.4246 141.992 77.8486 142.24 79.0966 142.736C80.3606 143.232 81.3446 143.928 82.0486 144.824C82.7686 145.704 83.1286 146.752 83.1286 147.968C83.1286 149.168 82.7686 150.216 82.0486 151.112C81.3446 151.992 80.3606 152.68 79.0966 153.176C77.8486 153.672 76.4246 153.92 74.8246 153.92C73.2406 153.92 71.8166 153.672 70.5526 153.176C69.3046 152.68 68.3206 151.992 67.6006 151.112C66.8806 150.216 66.5206 149.168 66.5206 147.968C66.5206 146.752 66.8806 145.704 67.6006 144.824C68.3206 143.928 69.3046 143.232 70.5526 142.736C71.8166 142.24 73.2406 141.992 74.8246 141.992ZM74.8246 144.464C73.8006 144.464 72.8966 144.608 72.1126 144.896C71.3446 145.168 70.7446 145.56 70.3126 146.072C69.8806 146.584 69.6646 147.216 69.6646 147.968C69.6646 148.688 69.8806 149.312 70.3126 149.84C70.7446 150.352 71.3446 150.752 72.1126 151.04C72.8966 151.312 73.8006 151.448 74.8246 151.448C75.8646 151.448 76.7686 151.312 77.5366 151.04C78.3206 150.752 78.9206 150.352 79.3366 149.84C79.7686 149.312 79.9846 148.688 79.9846 147.968C79.9846 147.216 79.7686 146.584 79.3366 146.072C78.9206 145.56 78.3206 145.168 77.5366 144.896C76.7686 144.608 75.8646 144.464 74.8246 144.464ZM103.383 143.792H107.199V146.408H103.383V143.792ZM103.383 148.616H107.199V151.208H103.383V148.616ZM101.151 140.912H104.343V154.016H101.151V140.912ZM89.5107 154.928H104.343V163.136H101.151V157.448H89.5107V154.928ZM93.0387 142.112C94.1907 142.112 95.2227 142.352 96.1347 142.832C97.0467 143.296 97.7667 143.936 98.2947 144.752C98.8227 145.552 99.0867 146.48 99.0867 147.536C99.0867 148.608 98.8227 149.552 98.2947 150.368C97.7667 151.184 97.0467 151.824 96.1347 152.288C95.2227 152.752 94.1907 152.984 93.0387 152.984C91.9027 152.984 90.8787 152.752 89.9667 152.288C89.0547 151.824 88.3347 151.184 87.8067 150.368C87.2787 149.552 87.0147 148.608 87.0147 147.536C87.0147 146.48 87.2787 145.552 87.8067 144.752C88.3347 143.936 89.0547 143.296 89.9667 142.832C90.8787 142.352 91.9027 142.112 93.0387 142.112ZM93.0387 144.8C92.4947 144.8 91.9987 144.912 91.5507 145.136C91.1027 145.344 90.7507 145.656 90.4947 146.072C90.2547 146.472 90.1347 146.96 90.1347 147.536C90.1347 148.128 90.2547 148.632 90.4947 149.048C90.7507 149.448 91.1027 149.76 91.5507 149.984C91.9987 150.192 92.4947 150.296 93.0387 150.296C93.6147 150.296 94.1187 150.192 94.5507 149.984C94.9827 149.76 95.3267 149.448 95.5827 149.048C95.8387 148.632 95.9667 148.128 95.9667 147.536C95.9667 146.96 95.8387 146.472 95.5827 146.072C95.3267 145.656 94.9827 145.344 94.5507 145.136C94.1187 144.912 93.6147 144.8 93.0387 144.8ZM124.261 140.888H127.453V163.112H124.261V140.888ZM117.709 143.192H120.853C120.853 144.888 120.685 146.512 120.349 148.064C120.029 149.6 119.485 151.048 118.717 152.408C117.965 153.768 116.925 155.032 115.597 156.2C114.285 157.352 112.645 158.408 110.677 159.368L108.997 156.848C111.141 155.808 112.845 154.664 114.109 153.416C115.389 152.152 116.309 150.728 116.869 149.144C117.429 147.544 117.709 145.752 117.709 143.768V143.192ZM110.197 143.192H119.197V145.736H110.197V143.192Z" fill="white"/>
</svg>
