<svg width="121" height="174" viewBox="0 0 121 174" fill="none" xmlns="http://www.w3.org/2000/svg">
<path d="M33.8321 113.839H87.1678C97.5649 113.839 102.738 108.566 102.738 98.1193V52.5172H66.3757C59.9471 52.5172 56.9342 49.4529 56.9342 43.0243V6.16077H33.8321C23.4864 6.16077 18.2621 11.4836 18.2621 21.9322V98.1193C18.2621 108.615 23.4864 113.839 33.8321 113.839ZM66.5278 45.6365H102.185C101.834 43.5772 100.376 41.5672 98.0171 39.1072L70.2928 10.9329C67.9828 8.5222 65.8742 7.06505 63.7635 6.71148V42.9258C63.7635 44.7322 64.7192 45.6365 66.5278 45.6365ZM41.1649 74.2651C39.1057 74.2651 37.6485 72.8079 37.6485 70.8493C37.6485 68.8886 39.1057 67.4336 41.1628 67.4336H79.8842C81.8942 67.4336 83.4521 68.8908 83.4521 70.8472C83.4521 72.8079 81.8942 74.2629 79.8864 74.2629L41.1649 74.2651ZM41.1649 93.3986C39.1057 93.3986 37.6485 91.9415 37.6485 89.9829C37.6485 88.0243 39.1057 86.5672 41.1628 86.5672H79.8842C81.8942 86.5672 83.4521 88.0243 83.4521 89.9829C83.4521 91.9415 81.8942 93.3986 79.8864 93.3986H41.1649Z" fill="#333333"/>
<rect x="26.5" y="130" width="68" height="44" rx="10" fill="#333333"/>
<path d="M48.0707 148.344C47.9911 147.599 47.6559 147.02 47.065 146.605C46.4798 146.19 45.7184 145.983 44.7809 145.983C44.1218 145.983 43.5565 146.082 43.0849 146.281C42.6133 146.48 42.2525 146.75 42.0025 147.091C41.7525 147.432 41.6246 147.821 41.619 148.259C41.619 148.622 41.7013 148.937 41.8661 149.205C42.0366 149.472 42.2667 149.699 42.5565 149.886C42.8462 150.068 43.1673 150.222 43.5195 150.347C43.8718 150.472 44.2269 150.577 44.5849 150.662L46.2212 151.071C46.8803 151.224 47.5138 151.432 48.1218 151.693C48.7354 151.955 49.2837 152.284 49.7667 152.682C50.2553 153.08 50.6417 153.56 50.9258 154.122C51.2099 154.685 51.3519 155.344 51.3519 156.099C51.3519 157.122 51.0906 158.023 50.5678 158.801C50.0451 159.574 49.2894 160.179 48.3008 160.616C47.3178 161.048 46.1275 161.264 44.7298 161.264C43.3718 161.264 42.1928 161.054 41.1928 160.634C40.1985 160.213 39.4201 159.599 38.8576 158.793C38.3008 157.986 37.9996 157.003 37.9542 155.844H41.065C41.1104 156.452 41.2979 156.957 41.6275 157.361C41.957 157.764 42.386 158.065 42.9144 158.264C43.4485 158.463 44.0451 158.562 44.7042 158.562C45.3917 158.562 45.994 158.46 46.511 158.256C47.0337 158.045 47.4428 157.756 47.7383 157.386C48.0337 157.011 48.1843 156.574 48.19 156.074C48.1843 155.619 48.0508 155.244 47.7894 154.949C47.5281 154.648 47.1616 154.398 46.69 154.199C46.2241 153.994 45.6786 153.812 45.0536 153.653L43.0678 153.142C41.6303 152.773 40.494 152.213 39.6587 151.463C38.8292 150.707 38.4144 149.705 38.4144 148.455C38.4144 147.426 38.6928 146.526 39.2496 145.753C39.8121 144.98 40.5763 144.381 41.5423 143.955C42.5082 143.523 43.6019 143.307 44.8235 143.307C46.0621 143.307 47.1474 143.523 48.0792 143.955C49.0167 144.381 49.7525 144.974 50.2866 145.736C50.8207 146.491 51.0962 147.361 51.1133 148.344H48.0707ZM53.4038 146.196V143.545H67.3299V146.196H61.935V161H58.7987V146.196H53.4038ZM69.2475 146.196V143.545H83.1737V146.196H77.7788V161H74.6424V146.196H69.2475Z" fill="white"/>
</svg>
