<svg width="121" height="174" viewBox="0 0 121 174" fill="none" xmlns="http://www.w3.org/2000/svg">
<path d="M35.5 115C32.75 115 30.3967 114.022 28.44 112.065C26.4833 110.108 25.5033 107.753 25.5 105V15C25.5 12.25 26.48 9.89667 28.44 7.94C30.4 5.98333 32.7533 5.00333 35.5 5H85.5C88.25 5 90.605 5.98 92.565 7.94C94.525 9.9 95.5033 12.2533 95.5 15V18.375L60 53.75V66.25L95.5 101.625V105C95.5 107.75 94.5217 110.105 92.565 112.065C90.6083 114.025 88.2533 115.003 85.5 115H35.5ZM60.5 30C61.9167 30 63.105 29.52 64.065 28.56C65.025 27.6 65.5033 26.4133 65.5 25C65.4967 23.5867 65.0167 22.4 64.06 21.44C63.1033 20.48 61.9167 20 60.5 20C59.0833 20 57.8967 20.48 56.94 21.44C55.9833 22.4 55.5033 23.5867 55.5 25C55.4967 26.4133 55.9767 27.6017 56.94 28.565C57.9033 29.5283 59.09 30.0067 60.5 30ZM82.125 74.25L74.875 67C75.875 66.0833 76.6467 65.02 77.19 63.81C77.7333 62.6 78.0033 61.33 78 60C77.9967 58.67 77.7267 57.3983 77.19 56.185C76.6533 54.9717 75.8817 53.91 74.875 53L82.125 45.75C84.0417 47.6667 85.5 49.855 86.5 52.315C87.5 54.775 88 57.3367 88 60C88 62.6633 87.5 65.2267 86.5 67.69C85.5 70.1533 84.0417 72.34 82.125 74.25ZM94.375 86.5L87.375 79.5C89.9583 76.9167 91.9583 73.9583 93.375 70.625C94.7917 67.2917 95.5 63.75 95.5 60C95.5 56.25 94.7917 52.7083 93.375 49.375C91.9583 46.0417 89.9583 43.0833 87.375 40.5L94.375 33.5C97.9583 37 100.708 41.0417 102.625 45.625C104.542 50.2083 105.5 55 105.5 60C105.5 65 104.542 69.7917 102.625 74.375C100.708 78.9583 97.9583 83 94.375 86.5Z" fill="#333333"/>
<rect x="26.5" y="130" width="68" height="44" rx="10" fill="#333333"/>
<path d="M37.8178 146.196V143.545H51.744V146.196H46.3491V161H43.2127V146.196H37.8178ZM53.6616 146.196V143.545H67.5877V146.196H62.1928V161H59.0565V146.196H53.6616ZM79.7582 148.344C79.6786 147.599 79.3434 147.02 78.7525 146.605C78.1673 146.19 77.4059 145.983 76.4684 145.983C75.8093 145.983 75.244 146.082 74.7724 146.281C74.3008 146.48 73.94 146.75 73.69 147.091C73.44 147.432 73.3121 147.821 73.3065 148.259C73.3065 148.622 73.3888 148.937 73.5536 149.205C73.7241 149.472 73.9542 149.699 74.244 149.886C74.5337 150.068 74.8548 150.222 75.207 150.347C75.5593 150.472 75.9144 150.577 76.2724 150.662L77.9087 151.071C78.5678 151.224 79.2013 151.432 79.8093 151.693C80.4229 151.955 80.9712 152.284 81.4542 152.682C81.9428 153.08 82.3292 153.56 82.6133 154.122C82.8974 154.685 83.0394 155.344 83.0394 156.099C83.0394 157.122 82.7781 158.023 82.2553 158.801C81.7326 159.574 80.9769 160.179 79.9883 160.616C79.0053 161.048 77.815 161.264 76.4173 161.264C75.0593 161.264 73.8803 161.054 72.8803 160.634C71.886 160.213 71.1076 159.599 70.5451 158.793C69.9883 157.986 69.6871 157.003 69.6417 155.844H72.7525C72.7979 156.452 72.9854 156.957 73.315 157.361C73.6445 157.764 74.0735 158.065 74.6019 158.264C75.136 158.463 75.7326 158.562 76.3917 158.562C77.0792 158.562 77.6815 158.46 78.1985 158.256C78.7212 158.045 79.1303 157.756 79.4258 157.386C79.7212 157.011 79.8718 156.574 79.8775 156.074C79.8718 155.619 79.7383 155.244 79.4769 154.949C79.2156 154.648 78.8491 154.398 78.3775 154.199C77.9116 153.994 77.3661 153.812 76.7411 153.653L74.7553 153.142C73.3178 152.773 72.1815 152.213 71.3462 151.463C70.5167 150.707 70.1019 149.705 70.1019 148.455C70.1019 147.426 70.3803 146.526 70.9371 145.753C71.4996 144.98 72.2638 144.381 73.2298 143.955C74.1957 143.523 75.2894 143.307 76.511 143.307C77.7496 143.307 78.8349 143.523 79.7667 143.955C80.7042 144.381 81.44 144.974 81.9741 145.736C82.5082 146.491 82.7837 147.361 82.8008 148.344H79.7582Z" fill="white"/>
</svg>
