<svg width="200" height="200" viewBox="0 0 200 200" fill="none" xmlns="http://www.w3.org/2000/svg">
<path fill-rule="evenodd" clip-rule="evenodd" d="M64.5 38C60.5218 38 56.7064 39.5804 53.8934 42.3934C51.0804 45.2064 49.5 49.0218 49.5 53V93C49.5 96.9782 51.0804 100.794 53.8934 103.607C56.7064 106.42 60.5218 108 64.5 108H114.5C118.478 108 122.294 106.42 125.107 103.607C127.92 100.794 129.5 96.9782 129.5 93V85.07L140.965 96.535C141.664 97.2341 142.555 97.7101 143.525 97.9029C144.495 98.0958 145.5 97.9967 146.413 97.6184C147.327 97.24 148.108 96.5993 148.657 95.7773C149.206 94.9552 149.5 93.9888 149.5 93V53C149.5 52.0112 149.206 51.0448 148.657 50.2227C148.108 49.4007 147.327 48.76 146.413 48.3816C145.5 48.0033 144.495 47.9042 143.525 48.0971C142.555 48.2899 141.664 48.766 140.965 49.465L129.5 60.93V53C129.5 49.0218 127.92 45.2064 125.107 42.3934C122.294 39.5804 118.478 38 114.5 38H64.5Z" fill="#333333"/>
<rect x="31" y="143" width="137" height="44" rx="10" fill="#333333"/>
<path d="M42.3361 164.352H62.4241V166.872H42.3361V164.352ZM50.7841 161.016H53.9761V165.336H50.7841V161.016ZM44.7601 160.008H60.1441V162.504H44.7601V160.008ZM44.7601 154.848H60.0241V157.368H47.9281V161.592H44.7601V154.848ZM52.2961 167.976C54.6961 167.976 56.5841 168.336 57.9601 169.056C59.3361 169.76 60.0241 170.768 60.0241 172.08C60.0241 173.376 59.3361 174.376 57.9601 175.08C56.5841 175.8 54.6961 176.16 52.2961 176.16C49.8961 176.16 48.0081 175.8 46.6321 175.08C45.2721 174.376 44.5921 173.376 44.5921 172.08C44.5921 170.768 45.2721 169.76 46.6321 169.056C48.0081 168.336 49.8961 167.976 52.2961 167.976ZM52.2961 170.4C51.3041 170.4 50.4721 170.464 49.8001 170.592C49.1441 170.704 48.6481 170.888 48.3121 171.144C47.9761 171.384 47.8081 171.688 47.8081 172.056C47.8081 172.44 47.9761 172.76 48.3121 173.016C48.6481 173.256 49.1441 173.44 49.8001 173.568C50.4721 173.68 51.3041 173.736 52.2961 173.736C53.2881 173.736 54.1121 173.68 54.7681 173.568C55.4401 173.44 55.9441 173.256 56.2801 173.016C56.6161 172.76 56.7841 172.44 56.7841 172.056C56.7841 171.688 56.6161 171.384 56.2801 171.144C55.9441 170.888 55.4401 170.704 54.7681 170.592C54.1121 170.464 53.2881 170.4 52.2961 170.4ZM74.2063 156.792H80.7823V159.36H74.2063V156.792ZM74.2063 161.736H80.7823V164.28H74.2063V161.736ZM70.5103 155.088C71.6303 155.088 72.6303 155.328 73.5103 155.808C74.3903 156.272 75.0863 156.912 75.5983 157.728C76.1263 158.544 76.3903 159.48 76.3903 160.536C76.3903 161.576 76.1263 162.504 75.5983 163.32C75.0863 164.136 74.3903 164.784 73.5103 165.264C72.6303 165.728 71.6303 165.96 70.5103 165.96C69.4223 165.96 68.4303 165.728 67.5343 165.264C66.6543 164.784 65.9503 164.136 65.4223 163.32C64.9103 162.504 64.6543 161.576 64.6543 160.536C64.6543 159.48 64.9103 158.544 65.4223 157.728C65.9503 156.912 66.6543 156.272 67.5343 155.808C68.4303 155.328 69.4223 155.088 70.5103 155.088ZM70.5103 157.776C69.9823 157.776 69.5023 157.888 69.0703 158.112C68.6383 158.32 68.2943 158.632 68.0383 159.048C67.7983 159.448 67.6783 159.944 67.6783 160.536C67.6783 161.096 67.7983 161.584 68.0383 162C68.2943 162.416 68.6383 162.736 69.0703 162.96C69.5023 163.168 69.9823 163.272 70.5103 163.272C71.0703 163.272 71.5583 163.168 71.9743 162.96C72.4063 162.736 72.7423 162.416 72.9823 162C73.2223 161.584 73.3423 161.096 73.3423 160.536C73.3423 159.944 73.2223 159.448 72.9823 159.048C72.7423 158.632 72.4063 158.32 71.9743 158.112C71.5583 157.888 71.0703 157.776 70.5103 157.776ZM79.7743 153.912H82.9903V166.92H79.7743V153.912ZM75.4543 167.376C77.0223 167.376 78.3663 167.552 79.4863 167.904C80.6223 168.24 81.5023 168.736 82.1263 169.392C82.7503 170.048 83.0623 170.832 83.0623 171.744C83.0623 172.656 82.7503 173.44 82.1263 174.096C81.5023 174.768 80.6223 175.272 79.4863 175.608C78.3663 175.96 77.0223 176.136 75.4543 176.136C73.8863 176.136 72.5343 175.96 71.3983 175.608C70.2623 175.272 69.3823 174.768 68.7583 174.096C68.1503 173.44 67.8463 172.656 67.8463 171.744C67.8463 170.832 68.1503 170.048 68.7583 169.392C69.3823 168.736 70.2623 168.24 71.3983 167.904C72.5343 167.552 73.8863 167.376 75.4543 167.376ZM75.4543 169.824C74.4943 169.824 73.6783 169.896 73.0063 170.04C72.3343 170.184 71.8303 170.4 71.4943 170.688C71.1583 170.96 70.9903 171.312 70.9903 171.744C70.9903 172.176 71.1583 172.536 71.4943 172.824C71.8303 173.112 72.3343 173.328 73.0063 173.472C73.6783 173.6 74.4943 173.664 75.4543 173.664C76.4303 173.664 77.2463 173.6 77.9023 173.472C78.5743 173.328 79.0783 173.112 79.4143 172.824C79.7503 172.536 79.9183 172.176 79.9183 171.744C79.9183 171.312 79.7503 170.96 79.4143 170.688C79.0783 170.4 78.5743 170.184 77.9023 170.04C77.2463 169.896 76.4303 169.824 75.4543 169.824ZM91.3404 155.088H93.9564V157.08C93.9564 158.536 93.7324 159.92 93.2844 161.232C92.8524 162.528 92.1804 163.664 91.2684 164.64C90.3564 165.616 89.1964 166.344 87.7884 166.824L86.1084 164.328C87.3564 163.896 88.3644 163.312 89.1324 162.576C89.9004 161.824 90.4604 160.968 90.8124 160.008C91.1644 159.048 91.3404 158.072 91.3404 157.08V155.088ZM91.9884 155.088H94.5564V157.368C94.5564 158.04 94.6524 158.696 94.8444 159.336C95.0524 159.976 95.3564 160.576 95.7564 161.136C96.1564 161.696 96.6684 162.2 97.2924 162.648C97.9164 163.08 98.6684 163.432 99.5484 163.704L97.8924 166.2C96.5484 165.752 95.4364 165.088 94.5564 164.208C93.6924 163.328 93.0444 162.304 92.6124 161.136C92.1964 159.968 91.9884 158.712 91.9884 157.368V155.088ZM100.748 153.912H103.94V167.04H100.748V153.912ZM103.076 159.048H106.892V161.688H103.076V159.048ZM96.6924 167.544C98.2444 167.544 99.5804 167.72 100.7 168.072C101.82 168.408 102.684 168.896 103.292 169.536C103.9 170.16 104.204 170.928 104.204 171.84C104.204 172.736 103.9 173.504 103.292 174.144C102.684 174.784 101.82 175.272 100.7 175.608C99.5804 175.96 98.2444 176.136 96.6924 176.136C95.1564 176.136 93.8204 175.96 92.6844 175.608C91.5644 175.272 90.6924 174.784 90.0684 174.144C89.4604 173.504 89.1564 172.736 89.1564 171.84C89.1564 170.928 89.4604 170.16 90.0684 169.536C90.6924 168.896 91.5644 168.408 92.6844 168.072C93.8204 167.72 95.1564 167.544 96.6924 167.544ZM96.6924 170.016C95.7484 170.016 94.9564 170.088 94.3164 170.232C93.6764 170.36 93.1884 170.56 92.8524 170.832C92.5164 171.088 92.3484 171.424 92.3484 171.84C92.3484 172.24 92.5164 172.576 92.8524 172.848C93.1884 173.12 93.6764 173.328 94.3164 173.472C94.9564 173.6 95.7484 173.664 96.6924 173.664C97.6364 173.664 98.4284 173.6 99.0684 173.472C99.7244 173.328 100.212 173.12 100.532 172.848C100.868 172.576 101.036 172.24 101.036 171.84C101.036 171.424 100.868 171.088 100.532 170.832C100.212 170.56 99.7244 170.36 99.0684 170.232C98.4284 170.088 97.6364 170.016 96.6924 170.016ZM118.484 155.232H120.98V157.8C120.98 159.064 120.804 160.296 120.452 161.496C120.1 162.68 119.548 163.744 118.796 164.688C118.044 165.632 117.06 166.36 115.844 166.872L114.188 164.424C115.212 163.96 116.036 163.376 116.66 162.672C117.3 161.952 117.764 161.168 118.052 160.32C118.34 159.472 118.484 158.632 118.484 157.8V155.232ZM119.084 155.232H121.58V157.8C121.58 158.6 121.716 159.384 121.988 160.152C122.26 160.904 122.7 161.592 123.308 162.216C123.932 162.84 124.724 163.352 125.684 163.752L124.004 166.176C122.852 165.712 121.908 165.056 121.172 164.208C120.452 163.344 119.924 162.368 119.588 161.28C119.252 160.176 119.084 159.016 119.084 157.8V155.232ZM130.388 153.912H133.436V167.496H130.388V153.912ZM127.724 159.312H131.252V161.88H127.724V159.312ZM125.708 154.32H128.684V166.8H125.708V154.32ZM125.9 167.808C127.452 167.808 128.796 167.976 129.932 168.312C131.084 168.632 131.972 169.104 132.596 169.728C133.22 170.352 133.532 171.096 133.532 171.96C133.532 172.84 133.22 173.592 132.596 174.216C131.972 174.84 131.084 175.312 129.932 175.632C128.796 175.968 127.452 176.136 125.9 176.136C124.348 176.136 122.996 175.968 121.844 175.632C120.692 175.312 119.804 174.84 119.18 174.216C118.556 173.592 118.244 172.84 118.244 171.96C118.244 171.096 118.556 170.352 119.18 169.728C119.804 169.104 120.692 168.632 121.844 168.312C122.996 167.976 124.348 167.808 125.9 167.808ZM125.9 170.208C124.46 170.208 123.348 170.352 122.564 170.64C121.796 170.928 121.412 171.368 121.412 171.96C121.412 172.552 121.796 173 122.564 173.304C123.348 173.592 124.46 173.736 125.9 173.736C126.844 173.736 127.644 173.672 128.3 173.544C128.972 173.4 129.476 173.2 129.812 172.944C130.164 172.688 130.34 172.36 130.34 171.96C130.34 171.368 129.956 170.928 129.188 170.64C128.42 170.352 127.324 170.208 125.9 170.208ZM141.738 155.064H144.378V157.032C144.378 158.52 144.146 159.92 143.682 161.232C143.234 162.544 142.546 163.688 141.618 164.664C140.69 165.64 139.498 166.376 138.042 166.872L136.362 164.304C137.642 163.904 138.674 163.328 139.458 162.576C140.242 161.824 140.818 160.968 141.186 160.008C141.554 159.048 141.738 158.056 141.738 157.032V155.064ZM142.386 155.064H144.978V156.888C144.978 157.864 145.146 158.808 145.482 159.72C145.818 160.616 146.354 161.416 147.09 162.12C147.826 162.808 148.778 163.344 149.946 163.728L148.29 166.224C146.93 165.744 145.81 165.048 144.93 164.136C144.066 163.224 143.426 162.152 143.01 160.92C142.594 159.672 142.386 158.328 142.386 156.888V155.064ZM151.962 153.912H155.178V166.92H151.962V153.912ZM147.642 167.496C149.994 167.496 151.85 167.88 153.21 168.648C154.57 169.4 155.25 170.448 155.25 171.792C155.25 173.168 154.57 174.232 153.21 174.984C151.85 175.752 149.994 176.136 147.642 176.136C145.29 176.136 143.434 175.752 142.074 174.984C140.714 174.232 140.034 173.168 140.034 171.792C140.034 170.448 140.714 169.4 142.074 168.648C143.434 167.88 145.29 167.496 147.642 167.496ZM147.642 169.968C146.682 169.968 145.874 170.032 145.218 170.16C144.562 170.288 144.058 170.496 143.706 170.784C143.37 171.056 143.202 171.392 143.202 171.792C143.202 172.208 143.37 172.56 143.706 172.848C144.058 173.12 144.562 173.328 145.218 173.472C145.874 173.6 146.682 173.664 147.642 173.664C148.602 173.664 149.41 173.6 150.066 173.472C150.722 173.328 151.218 173.12 151.554 172.848C151.89 172.56 152.058 172.208 152.058 171.792C152.058 171.392 151.89 171.056 151.554 170.784C151.218 170.496 150.722 170.288 150.066 170.16C149.41 170.032 148.602 169.968 147.642 169.968ZM147.906 157.944H152.442V160.536H147.906V157.944Z" fill="white"/>
</svg>
