<svg width="121" height="174" viewBox="0 0 121 174" fill="none" xmlns="http://www.w3.org/2000/svg">
<path fill-rule="evenodd" clip-rule="evenodd" d="M11.2144 92.2705V23.3847C11.2144 18.9999 12.9562 14.7948 16.0566 11.6943C19.1571 8.59387 23.3622 6.85205 27.747 6.85205L79.1817 6.85205C83.5665 6.85205 87.7716 8.59387 90.8721 11.6943C93.9725 14.7948 95.7144 18.9999 95.7144 23.3847V80.3303C95.7144 81.7919 95.1337 83.1936 94.1003 84.2271C93.0668 85.2606 91.6651 85.8412 90.2035 85.8412H88.3665V98.6999H90.2035C91.6651 98.6999 93.0668 99.2805 94.1003 100.314C95.1337 101.347 95.7144 102.749 95.7144 104.211C95.7144 105.672 95.1337 107.074 94.1003 108.108C93.0668 109.141 91.6651 109.722 90.2035 109.722H28.6654C24.0371 109.722 19.5984 107.883 16.3257 104.61C13.0529 101.338 11.2144 96.8989 11.2144 92.2705ZM77.3448 85.8412H28.6654C26.9603 85.8412 25.3249 86.5186 24.1192 87.7243C22.9135 88.93 22.2361 90.5654 22.2361 92.2705C22.2361 93.9757 22.9135 95.611 24.1192 96.8168C25.3249 98.0225 26.9603 98.6999 28.6654 98.6999H77.3448V85.8412ZM81.4596 41.9159C81.1504 41.3191 80.6834 40.8185 80.1095 40.4687C79.5355 40.1189 78.8766 39.9333 78.2045 39.932H61.1796C60.2052 39.932 59.2707 40.319 58.5817 41.008C57.8927 41.697 57.5057 42.6315 57.5057 43.6059C57.5057 44.5803 57.8927 45.5147 58.5817 46.2037C59.2707 46.8927 60.2052 47.2798 61.1796 47.2798H71.0991L57.1309 67.0014C56.7415 67.5512 56.5107 68.1975 56.4639 68.8697C56.4171 69.5418 56.5561 70.2139 56.8656 70.8124C57.175 71.4109 57.6432 71.9128 58.2187 72.2631C58.7942 72.6135 59.4551 72.7988 60.1288 72.7988H79.2626C80.237 72.7988 81.1714 72.4117 81.8604 71.7227C82.5494 71.0337 82.9365 70.0993 82.9365 69.1249C82.9365 68.1505 82.5494 67.216 81.8604 66.527C81.1714 65.838 80.237 65.451 79.2626 65.451H67.2342L81.1951 45.7294C81.586 45.1799 81.8182 44.5334 81.8661 43.8608C81.9141 43.1881 81.7686 42.5153 81.4596 41.9159ZM44.7572 26.1768C44.3149 24.8609 43.4706 23.7171 42.3434 22.9068C41.2162 22.0965 39.863 21.6606 38.4748 21.6606C37.0866 21.6606 35.7334 22.0965 34.6062 22.9068C33.479 23.7171 32.6347 24.8609 32.1924 26.1768L27.2179 41.0929L27.1665 41.2546L24.3523 49.6752C24.1993 50.1335 24.1382 50.6175 24.1723 51.0995C24.2064 51.5815 24.3351 52.052 24.551 52.4843C24.767 52.9165 25.0659 53.302 25.4309 53.6187C25.7958 53.9354 26.2195 54.1771 26.6779 54.33C27.6035 54.6389 28.614 54.5674 29.4869 54.1313C29.9192 53.9153 30.3046 53.6164 30.6213 53.2514C30.938 52.8865 31.1798 52.4628 31.3327 52.0044L33.3166 46.0086H43.6183L45.6169 52.0044C45.9258 52.9291 46.5893 53.6932 47.4616 54.1287C48.3338 54.5641 49.3434 54.6352 50.2681 54.3264C51.1927 54.0175 51.9569 53.3539 52.3923 52.4817C52.8277 51.6094 52.8988 50.5999 52.59 49.6752L49.7831 41.2546L49.7243 41.0929L44.7572 26.1768ZM35.7561 38.6534L38.4601 30.5561L41.1567 38.6534H35.7561Z" fill="#333333"/>
<rect x="28" y="130" width="65" height="44" rx="10" fill="#333333"/>
<path d="M49.8939 146.792H55.6059V149.36H49.8939V146.792ZM54.7899 140.912H58.0059V157.304H54.7899V140.912ZM43.2939 160.184H58.4859V162.752H43.2939V160.184ZM43.2939 155.696H46.4859V161.648H43.2939V155.696ZM40.3179 142.376H43.4859V145.736H47.7099V142.376H50.8539V153.848H40.3179V142.376ZM43.4859 148.184V151.304H47.7099V148.184H43.4859ZM71.3 143.888H77.876V146.432H71.3V143.888ZM71.3 148.712H77.876V151.256H71.3V148.712ZM64.916 155.072H80.084V163.136H76.868V157.592H64.916V155.072ZM76.868 140.912H80.084V154.064H76.868V140.912ZM67.628 142.04C68.732 142.04 69.724 142.28 70.604 142.76C71.484 143.224 72.18 143.872 72.692 144.704C73.22 145.536 73.484 146.488 73.484 147.56C73.484 148.616 73.22 149.568 72.692 150.416C72.18 151.248 71.484 151.904 70.604 152.384C69.724 152.848 68.732 153.08 67.628 153.08C66.524 153.08 65.524 152.848 64.628 152.384C63.748 151.904 63.044 151.248 62.516 150.416C62.004 149.568 61.748 148.616 61.748 147.56C61.748 146.488 62.004 145.536 62.516 144.704C63.044 143.872 63.748 143.224 64.628 142.76C65.524 142.28 66.524 142.04 67.628 142.04ZM67.604 144.776C67.076 144.776 66.596 144.888 66.164 145.112C65.732 145.32 65.388 145.632 65.132 146.048C64.892 146.464 64.772 146.968 64.772 147.56C64.772 148.136 64.892 148.64 65.132 149.072C65.388 149.488 65.732 149.808 66.164 150.032C66.596 150.256 67.076 150.368 67.604 150.368C68.148 150.368 68.628 150.256 69.044 150.032C69.476 149.808 69.812 149.488 70.052 149.072C70.308 148.64 70.436 148.136 70.436 147.56C70.436 146.968 70.308 146.464 70.052 146.048C69.812 145.632 69.476 145.32 69.044 145.112C68.628 144.888 68.148 144.776 67.604 144.776Z" fill="white"/>
</svg>
