<svg width="200" height="200" viewBox="0 0 200 200" fill="none" xmlns="http://www.w3.org/2000/svg">
<path d="M75 128C72.25 128 69.8967 127.022 67.94 125.065C65.9833 123.108 65.0033 120.753 65 118V28C65 25.25 65.98 22.8967 67.94 20.94C69.9 18.9833 72.2533 18.0033 75 18H125C127.75 18 130.105 18.98 132.065 20.94C134.025 22.9 135.003 25.2533 135 28V31.375L99.5 66.75V79.25L135 114.625V118C135 120.75 134.022 123.105 132.065 125.065C130.108 127.025 127.753 128.003 125 128H75ZM100 43C101.417 43 102.605 42.52 103.565 41.56C104.525 40.6 105.003 39.4133 105 38C104.997 36.5867 104.517 35.4 103.56 34.44C102.603 33.48 101.417 33 100 33C98.5833 33 97.3967 33.48 96.44 34.44C95.4833 35.4 95.0033 36.5867 95 38C94.9967 39.4133 95.4767 40.6017 96.44 41.565C97.4033 42.5283 98.59 43.0067 100 43ZM121.625 87.25L114.375 80C115.375 79.0833 116.147 78.02 116.69 76.81C117.233 75.6 117.503 74.33 117.5 73C117.497 71.67 117.227 70.3983 116.69 69.185C116.153 67.9717 115.382 66.91 114.375 66L121.625 58.75C123.542 60.6667 125 62.855 126 65.315C127 67.775 127.5 70.3367 127.5 73C127.5 75.6633 127 78.2267 126 80.69C125 83.1533 123.542 85.34 121.625 87.25ZM133.875 99.5L126.875 92.5C129.458 89.9167 131.458 86.9583 132.875 83.625C134.292 80.2917 135 76.75 135 73C135 69.25 134.292 65.7083 132.875 62.375C131.458 59.0417 129.458 56.0833 126.875 53.5L133.875 46.5C137.458 50 140.208 54.0417 142.125 58.625C144.042 63.2083 145 68 145 73C145 78 144.042 82.7917 142.125 87.375C140.208 91.9583 137.458 96 133.875 99.5Z" fill="#333333"/>
<rect x="66" y="143" width="68" height="44" rx="10" fill="#333333"/>
<path d="M77.3178 159.196V156.545H91.244V159.196H85.8491V174H82.7127V159.196H77.3178ZM93.1616 159.196V156.545H107.088V159.196H101.693V174H98.5565V159.196H93.1616ZM119.258 161.344C119.179 160.599 118.843 160.02 118.252 159.605C117.667 159.19 116.906 158.983 115.968 158.983C115.309 158.983 114.744 159.082 114.272 159.281C113.801 159.48 113.44 159.75 113.19 160.091C112.94 160.432 112.812 160.821 112.806 161.259C112.806 161.622 112.889 161.937 113.054 162.205C113.224 162.472 113.454 162.699 113.744 162.886C114.034 163.068 114.355 163.222 114.707 163.347C115.059 163.472 115.414 163.577 115.772 163.662L117.409 164.071C118.068 164.224 118.701 164.432 119.309 164.693C119.923 164.955 120.471 165.284 120.954 165.682C121.443 166.08 121.829 166.56 122.113 167.122C122.397 167.685 122.539 168.344 122.539 169.099C122.539 170.122 122.278 171.023 121.755 171.801C121.233 172.574 120.477 173.179 119.488 173.616C118.505 174.048 117.315 174.264 115.917 174.264C114.559 174.264 113.38 174.054 112.38 173.634C111.386 173.213 110.608 172.599 110.045 171.793C109.488 170.986 109.187 170.003 109.142 168.844H112.252C112.298 169.452 112.485 169.957 112.815 170.361C113.145 170.764 113.574 171.065 114.102 171.264C114.636 171.463 115.233 171.562 115.892 171.562C116.579 171.562 117.181 171.46 117.699 171.256C118.221 171.045 118.63 170.756 118.926 170.386C119.221 170.011 119.372 169.574 119.377 169.074C119.372 168.619 119.238 168.244 118.977 167.949C118.716 167.648 118.349 167.398 117.877 167.199C117.412 166.994 116.866 166.812 116.241 166.653L114.255 166.142C112.818 165.773 111.681 165.213 110.846 164.463C110.017 163.707 109.602 162.705 109.602 161.455C109.602 160.426 109.88 159.526 110.437 158.753C111 157.98 111.764 157.381 112.73 156.955C113.696 156.523 114.789 156.307 116.011 156.307C117.25 156.307 118.335 156.523 119.267 156.955C120.204 157.381 120.94 157.974 121.474 158.736C122.008 159.491 122.284 160.361 122.301 161.344H119.258Z" fill="white"/>
</svg>
