<svg width="200" height="200" viewBox="0 0 200 200" fill="none" xmlns="http://www.w3.org/2000/svg">
<path d="M139.5 23H59.5C54 23 49.55 27.5 49.55 33L49.5 123L69.5 103H139.5C145 103 149.5 98.5 149.5 93V33C149.5 27.5 145 23 139.5 23ZM74.5 58H124.5C127.25 58 129.5 60.25 129.5 63C129.5 65.75 127.25 68 124.5 68H74.5C71.75 68 69.5 65.75 69.5 63C69.5 60.25 71.75 58 74.5 58ZM104.5 83H74.5C71.75 83 69.5 80.75 69.5 78C69.5 75.25 71.75 73 74.5 73H104.5C107.25 73 109.5 75.25 109.5 78C109.5 80.75 107.25 83 104.5 83ZM124.5 53H74.5C71.75 53 69.5 50.75 69.5 48C69.5 45.25 71.75 43 74.5 43H124.5C127.25 43 129.5 45.25 129.5 48C129.5 50.75 127.25 53 124.5 53Z" fill="#333333"/>
<rect x="25" y="143" width="149" height="44" rx="10" fill="#333333"/>
<path d="M51.7322 162.435H48.5447C48.4538 161.912 48.2862 161.449 48.0419 161.045C47.7976 160.636 47.4936 160.29 47.13 160.006C46.7663 159.722 46.3516 159.509 45.8857 159.366C45.4254 159.219 44.9283 159.145 44.3942 159.145C43.4453 159.145 42.6044 159.384 41.8714 159.861C41.1385 160.332 40.5646 161.026 40.1499 161.94C39.7351 162.849 39.5277 163.96 39.5277 165.273C39.5277 166.608 39.7351 167.733 40.1499 168.648C40.5703 169.557 41.1442 170.244 41.8714 170.71C42.6044 171.17 43.4425 171.401 44.3857 171.401C44.9084 171.401 45.397 171.332 45.8516 171.196C46.3118 171.054 46.7237 170.847 47.0874 170.574C47.4567 170.301 47.7663 169.966 48.0163 169.568C48.272 169.17 48.4482 168.716 48.5447 168.205L51.7322 168.222C51.6129 169.051 51.3544 169.83 50.9567 170.557C50.5646 171.284 50.0504 171.926 49.4141 172.483C48.7777 173.034 48.0334 173.466 47.1811 173.778C46.3288 174.085 45.3828 174.239 44.343 174.239C42.8089 174.239 41.4396 173.884 40.2351 173.173C39.0305 172.463 38.0817 171.438 37.3885 170.097C36.6953 168.756 36.3487 167.148 36.3487 165.273C36.3487 163.392 36.6982 161.784 37.397 160.449C38.0959 159.108 39.0476 158.082 40.2521 157.372C41.4567 156.662 42.8203 156.307 44.343 156.307C45.3146 156.307 46.218 156.443 47.0533 156.716C47.8885 156.989 48.6328 157.389 49.2862 157.918C49.9396 158.44 50.4766 159.082 50.897 159.844C51.3232 160.599 51.6016 161.463 51.7322 162.435ZM57.5767 166.33V174H54.4915V156.545H57.5085V163.134H57.6619C57.9688 162.395 58.4432 161.812 59.0852 161.386C59.733 160.955 60.5568 160.739 61.5568 160.739C62.4659 160.739 63.2585 160.929 63.9347 161.31C64.6108 161.69 65.1335 162.247 65.5028 162.98C65.8778 163.713 66.0653 164.608 66.0653 165.665V174H62.9801V166.142C62.9801 165.261 62.7528 164.577 62.2983 164.088C61.8494 163.594 61.2188 163.347 60.4062 163.347C59.8608 163.347 59.3722 163.466 58.9403 163.705C58.5142 163.937 58.179 164.276 57.9347 164.719C57.696 165.162 57.5767 165.699 57.5767 166.33ZM72.9773 174.264C72.1477 174.264 71.4006 174.116 70.7358 173.821C70.0767 173.52 69.554 173.077 69.1676 172.491C68.7869 171.906 68.5966 171.185 68.5966 170.327C68.5966 169.588 68.733 168.977 69.0057 168.494C69.2784 168.011 69.6506 167.625 70.1222 167.335C70.5938 167.045 71.125 166.827 71.7159 166.679C72.3125 166.526 72.929 166.415 73.5653 166.347C74.3324 166.267 74.9545 166.196 75.4318 166.134C75.9091 166.065 76.2557 165.963 76.4716 165.827C76.6932 165.685 76.804 165.466 76.804 165.17V165.119C76.804 164.477 76.6136 163.98 76.233 163.628C75.8523 163.276 75.304 163.099 74.5881 163.099C73.8324 163.099 73.233 163.264 72.7898 163.594C72.3523 163.923 72.0568 164.312 71.9034 164.761L69.0227 164.352C69.25 163.557 69.625 162.892 70.1477 162.358C70.6705 161.818 71.3097 161.415 72.0653 161.148C72.821 160.875 73.6563 160.739 74.571 160.739C75.2017 160.739 75.8295 160.812 76.4545 160.96C77.0795 161.108 77.6506 161.352 78.1676 161.693C78.6847 162.028 79.0994 162.486 79.4119 163.065C79.7301 163.645 79.8892 164.369 79.8892 165.239V174H76.9233V172.202H76.821C76.6335 172.565 76.3693 172.906 76.0284 173.224C75.6932 173.537 75.2699 173.79 74.7585 173.983C74.2528 174.17 73.6591 174.264 72.9773 174.264ZM73.7784 171.997C74.3977 171.997 74.9347 171.875 75.3892 171.631C75.8438 171.381 76.1932 171.051 76.4375 170.642C76.6875 170.233 76.8125 169.787 76.8125 169.304V167.761C76.7159 167.841 76.5511 167.915 76.3182 167.983C76.0909 168.051 75.8352 168.111 75.5511 168.162C75.267 168.213 74.9858 168.259 74.7074 168.298C74.429 168.338 74.1875 168.372 73.983 168.401C73.5227 168.463 73.1108 168.565 72.7472 168.707C72.3835 168.849 72.0966 169.048 71.8864 169.304C71.6761 169.554 71.571 169.878 71.571 170.276C71.571 170.844 71.7784 171.273 72.1932 171.562C72.608 171.852 73.1364 171.997 73.7784 171.997ZM89.5284 160.909V163.295H82.0028V160.909H89.5284ZM83.8608 157.773H86.946V170.062C86.946 170.477 87.0085 170.795 87.1335 171.017C87.2642 171.233 87.4347 171.381 87.6449 171.46C87.8551 171.54 88.0881 171.58 88.3438 171.58C88.5369 171.58 88.7131 171.565 88.8722 171.537C89.0369 171.509 89.1619 171.483 89.2472 171.46L89.767 173.872C89.6023 173.929 89.3665 173.991 89.0597 174.06C88.7585 174.128 88.3892 174.168 87.9517 174.179C87.179 174.202 86.483 174.085 85.8636 173.83C85.2443 173.568 84.7528 173.165 84.3892 172.619C84.0313 172.074 83.8551 171.392 83.8608 170.574V157.773ZM109.891 162.119C109.749 161.659 109.553 161.247 109.303 160.884C109.059 160.514 108.763 160.199 108.417 159.938C108.076 159.676 107.684 159.48 107.241 159.349C106.798 159.213 106.315 159.145 105.792 159.145C104.854 159.145 104.019 159.381 103.286 159.852C102.553 160.324 101.977 161.017 101.556 161.932C101.141 162.841 100.934 163.949 100.934 165.256C100.934 166.574 101.141 167.69 101.556 168.605C101.971 169.52 102.548 170.216 103.286 170.693C104.025 171.165 104.883 171.401 105.86 171.401C106.746 171.401 107.513 171.23 108.161 170.889C108.815 170.548 109.317 170.065 109.67 169.44C110.022 168.81 110.198 168.071 110.198 167.224L110.914 167.335H106.175V164.864H113.258V166.96C113.258 168.455 112.94 169.747 112.303 170.838C111.667 171.929 110.792 172.77 109.678 173.361C108.565 173.946 107.286 174.239 105.843 174.239C104.235 174.239 102.823 173.878 101.607 173.156C100.397 172.429 99.451 171.398 98.7692 170.062C98.093 168.722 97.755 167.131 97.755 165.29C97.755 163.881 97.9538 162.622 98.3516 161.514C98.755 160.406 99.3175 159.466 100.039 158.693C100.761 157.915 101.607 157.324 102.579 156.92C103.55 156.511 104.607 156.307 105.749 156.307C106.715 156.307 107.616 156.449 108.451 156.733C109.286 157.011 110.028 157.409 110.675 157.926C111.329 158.443 111.866 159.057 112.286 159.767C112.707 160.477 112.982 161.261 113.113 162.119H109.891ZM121.974 174.256C120.662 174.256 119.528 173.983 118.574 173.438C117.625 172.886 116.895 172.108 116.384 171.102C115.872 170.091 115.616 168.901 115.616 167.531C115.616 166.185 115.872 165.003 116.384 163.986C116.901 162.963 117.622 162.168 118.548 161.599C119.474 161.026 120.562 160.739 121.812 160.739C122.619 160.739 123.381 160.869 124.097 161.131C124.818 161.386 125.455 161.784 126.006 162.324C126.563 162.864 127 163.551 127.318 164.386C127.636 165.216 127.795 166.205 127.795 167.352V168.298H117.065V166.219H124.838C124.832 165.628 124.705 165.102 124.455 164.642C124.205 164.176 123.855 163.81 123.406 163.543C122.963 163.276 122.446 163.142 121.855 163.142C121.224 163.142 120.67 163.295 120.193 163.602C119.716 163.903 119.344 164.301 119.077 164.795C118.815 165.284 118.682 165.821 118.676 166.406V168.222C118.676 168.983 118.815 169.636 119.094 170.182C119.372 170.722 119.761 171.136 120.261 171.426C120.761 171.71 121.347 171.852 122.017 171.852C122.466 171.852 122.872 171.79 123.236 171.665C123.599 171.534 123.915 171.344 124.182 171.094C124.449 170.844 124.651 170.534 124.787 170.165L127.668 170.489C127.486 171.25 127.139 171.915 126.628 172.483C126.122 173.045 125.474 173.483 124.685 173.795C123.895 174.102 122.991 174.256 121.974 174.256ZM133.491 166.33V174H130.406V160.909H133.354V163.134H133.508C133.809 162.401 134.289 161.818 134.948 161.386C135.613 160.955 136.434 160.739 137.411 160.739C138.315 160.739 139.102 160.932 139.772 161.318C140.448 161.705 140.971 162.264 141.34 162.997C141.715 163.73 141.9 164.619 141.894 165.665V174H138.809V166.142C138.809 165.267 138.582 164.582 138.127 164.088C137.678 163.594 137.056 163.347 136.261 163.347C135.721 163.347 135.241 163.466 134.82 163.705C134.406 163.937 134.079 164.276 133.84 164.719C133.607 165.162 133.491 165.699 133.491 166.33ZM145.031 174V160.909H148.116V174H145.031ZM146.582 159.051C146.093 159.051 145.673 158.889 145.32 158.565C144.968 158.236 144.792 157.841 144.792 157.381C144.792 156.915 144.968 156.52 145.32 156.196C145.673 155.866 146.093 155.702 146.582 155.702C147.076 155.702 147.496 155.866 147.843 156.196C148.195 156.52 148.371 156.915 148.371 157.381C148.371 157.841 148.195 158.236 147.843 158.565C147.496 158.889 147.076 159.051 146.582 159.051ZM157.084 174.256C155.771 174.256 154.638 173.983 153.683 173.438C152.734 172.886 152.004 172.108 151.493 171.102C150.982 170.091 150.726 168.901 150.726 167.531C150.726 166.185 150.982 165.003 151.493 163.986C152.01 162.963 152.732 162.168 153.658 161.599C154.584 161.026 155.672 160.739 156.922 160.739C157.729 160.739 158.49 160.869 159.206 161.131C159.928 161.386 160.564 161.784 161.115 162.324C161.672 162.864 162.109 163.551 162.428 164.386C162.746 165.216 162.905 166.205 162.905 167.352V168.298H152.175V166.219H159.947C159.942 165.628 159.814 165.102 159.564 164.642C159.314 164.176 158.964 163.81 158.516 163.543C158.072 163.276 157.555 163.142 156.964 163.142C156.334 163.142 155.78 163.295 155.303 163.602C154.825 163.903 154.453 164.301 154.186 164.795C153.925 165.284 153.791 165.821 153.786 166.406V168.222C153.786 168.983 153.925 169.636 154.203 170.182C154.482 170.722 154.871 171.136 155.371 171.426C155.871 171.71 156.456 171.852 157.126 171.852C157.575 171.852 157.982 171.79 158.345 171.665C158.709 171.534 159.024 171.344 159.291 171.094C159.558 170.844 159.76 170.534 159.896 170.165L162.777 170.489C162.595 171.25 162.249 171.915 161.737 172.483C161.232 173.045 160.584 173.483 159.794 173.795C159.004 174.102 158.101 174.256 157.084 174.256Z" fill="white"/>
</svg>
