<svg width="200" height="200" viewBox="0 0 200 200" fill="none" xmlns="http://www.w3.org/2000/svg">
<path d="M135 28H65C59.5 28 55 32.5 55 38V108C55 113.5 59.5 118 65 118H135C140.5 118 145 113.5 145 108V38C145 32.5 140.5 28 135 28ZM87.5 70.5C87.5 74.5 84 78 80 78H75V88H67.5V58H80C84 58 87.5 61.5 87.5 65.5V70.5ZM112.5 80.5C112.5 84.5 109 88 105 88H92.5V58H105C109 58 112.5 61.5 112.5 65.5V80.5ZM132.5 65.5H125V70.5H132.5V78H125V88H117.5V58H132.5V65.5ZM100 65.5H105V80.5H100V65.5ZM75 65.5H80V70.5H75V65.5Z" fill="#333333"/>
<rect x="30" y="143" width="140" height="44" rx="10" fill="#333333"/>
<path d="M42.1786 174V156.545H48.7241C50.065 156.545 51.19 156.795 52.0991 157.295C53.0139 157.795 53.7042 158.483 54.1701 159.358C54.6417 160.227 54.8775 161.216 54.8775 162.324C54.8775 163.443 54.6417 164.437 54.1701 165.307C53.6985 166.176 53.0025 166.861 52.082 167.361C51.1616 167.855 50.0281 168.102 48.6815 168.102H44.3434V165.503H48.2553C49.0394 165.503 49.6815 165.366 50.1815 165.094C50.6815 164.821 51.0508 164.446 51.2894 163.969C51.5337 163.491 51.6559 162.943 51.6559 162.324C51.6559 161.705 51.5337 161.159 51.2894 160.688C51.0508 160.216 50.6786 159.849 50.1729 159.588C49.6729 159.321 49.0281 159.188 48.2383 159.188H45.3406V174H42.1786ZM63.5387 174H57.6239V156.545H63.658C65.391 156.545 66.8796 156.895 68.1239 157.594C69.3739 158.287 70.3342 159.284 71.0046 160.585C71.6751 161.886 72.0103 163.443 72.0103 165.256C72.0103 167.074 71.6722 168.636 70.9961 169.943C70.3256 171.25 69.3569 172.253 68.0898 172.952C66.8285 173.651 65.3114 174 63.5387 174ZM60.7859 171.264H63.3853C64.6012 171.264 65.6154 171.043 66.4279 170.599C67.2404 170.151 67.8512 169.483 68.2603 168.597C68.6694 167.705 68.8739 166.591 68.8739 165.256C68.8739 163.92 68.6694 162.812 68.2603 161.932C67.8512 161.045 67.2461 160.384 66.445 159.946C65.6495 159.503 64.6609 159.281 63.479 159.281H60.7859V171.264ZM75.0146 174V156.545H86.1964V159.196H78.1765V163.935H85.4293V166.585H78.1765V174H75.0146ZM98.7086 165.192H101.901V171.408H98.7086V165.192ZM106.773 165.192H109.965V171.408H106.773V165.192ZM94.2926 170.952H114.429V173.544H94.2926V170.952ZM104.325 154.992C105.925 154.992 107.349 155.24 108.597 155.736C109.861 156.232 110.845 156.928 111.549 157.824C112.269 158.704 112.629 159.752 112.629 160.968C112.629 162.168 112.269 163.216 111.549 164.112C110.845 164.992 109.861 165.68 108.597 166.176C107.349 166.672 105.925 166.92 104.325 166.92C102.741 166.92 101.317 166.672 100.053 166.176C98.8046 165.68 97.8206 164.992 97.1006 164.112C96.3806 163.216 96.0206 162.168 96.0206 160.968C96.0206 159.752 96.3806 158.704 97.1006 157.824C97.8206 156.928 98.8046 156.232 100.053 155.736C101.317 155.24 102.741 154.992 104.325 154.992ZM104.325 157.464C103.301 157.464 102.397 157.608 101.613 157.896C100.845 158.168 100.245 158.56 99.8126 159.072C99.3806 159.584 99.1646 160.216 99.1646 160.968C99.1646 161.688 99.3806 162.312 99.8126 162.84C100.245 163.352 100.845 163.752 101.613 164.04C102.397 164.312 103.301 164.448 104.325 164.448C105.365 164.448 106.269 164.312 107.037 164.04C107.821 163.752 108.421 163.352 108.837 162.84C109.269 162.312 109.485 161.688 109.485 160.968C109.485 160.216 109.269 159.584 108.837 159.072C108.421 158.56 107.821 158.168 107.037 157.896C106.269 157.608 105.365 157.464 104.325 157.464ZM132.883 156.792H136.699V159.408H132.883V156.792ZM132.883 161.616H136.699V164.208H132.883V161.616ZM130.651 153.912H133.843V167.016H130.651V153.912ZM119.011 167.928H133.843V176.136H130.651V170.448H119.011V167.928ZM122.539 155.112C123.691 155.112 124.723 155.352 125.635 155.832C126.547 156.296 127.267 156.936 127.795 157.752C128.323 158.552 128.587 159.48 128.587 160.536C128.587 161.608 128.323 162.552 127.795 163.368C127.267 164.184 126.547 164.824 125.635 165.288C124.723 165.752 123.691 165.984 122.539 165.984C121.403 165.984 120.379 165.752 119.467 165.288C118.555 164.824 117.835 164.184 117.307 163.368C116.779 162.552 116.515 161.608 116.515 160.536C116.515 159.48 116.779 158.552 117.307 157.752C117.835 156.936 118.555 156.296 119.467 155.832C120.379 155.352 121.403 155.112 122.539 155.112ZM122.539 157.8C121.995 157.8 121.499 157.912 121.051 158.136C120.603 158.344 120.251 158.656 119.995 159.072C119.755 159.472 119.635 159.96 119.635 160.536C119.635 161.128 119.755 161.632 119.995 162.048C120.251 162.448 120.603 162.76 121.051 162.984C121.499 163.192 121.995 163.296 122.539 163.296C123.115 163.296 123.619 163.192 124.051 162.984C124.483 162.76 124.827 162.448 125.083 162.048C125.339 161.632 125.467 161.128 125.467 160.536C125.467 159.96 125.339 159.472 125.083 159.072C124.827 158.656 124.483 158.344 124.051 158.136C123.619 157.912 123.115 157.8 122.539 157.8ZM153.761 153.888H156.953V176.112H153.761V153.888ZM147.209 156.192H150.353C150.353 157.888 150.185 159.512 149.849 161.064C149.529 162.6 148.985 164.048 148.217 165.408C147.465 166.768 146.425 168.032 145.097 169.2C143.785 170.352 142.145 171.408 140.177 172.368L138.497 169.848C140.641 168.808 142.345 167.664 143.609 166.416C144.889 165.152 145.809 163.728 146.369 162.144C146.929 160.544 147.209 158.752 147.209 156.768V156.192ZM139.697 156.192H148.697V158.736H139.697V156.192Z" fill="white"/>
</svg>
