<svg width="150" height="174" viewBox="0 0 150 174" fill="none" xmlns="http://www.w3.org/2000/svg">
<path d="M115 10H35C29.5 10 25.05 14.5 25.05 20L25 110L45 90H115C120.5 90 125 85.5 125 80V20C125 14.5 120.5 10 115 10ZM50 45H100C102.75 45 105 47.25 105 50C105 52.75 102.75 55 100 55H50C47.25 55 45 52.75 45 50C45 47.25 47.25 45 50 45ZM80 70H50C47.25 70 45 67.75 45 65C45 62.25 47.25 60 50 60H80C82.75 60 85 62.25 85 65C85 67.75 82.75 70 80 70ZM100 40H50C47.25 40 45 37.75 45 35C45 32.25 47.25 30 50 30H100C102.75 30 105 32.25 105 35C105 37.75 102.75 40 100 40Z" fill="#333333"/>
<rect x="0.5" y="130" width="149" height="44" rx="10" fill="#333333"/>
<path d="M27.2322 149.435H24.0447C23.9538 148.912 23.7862 148.449 23.5419 148.045C23.2976 147.636 22.9936 147.29 22.63 147.006C22.2663 146.722 21.8516 146.509 21.3857 146.366C20.9254 146.219 20.4283 146.145 19.8942 146.145C18.9453 146.145 18.1044 146.384 17.3714 146.861C16.6385 147.332 16.0646 148.026 15.6499 148.94C15.2351 149.849 15.0277 150.96 15.0277 152.273C15.0277 153.608 15.2351 154.733 15.6499 155.648C16.0703 156.557 16.6442 157.244 17.3714 157.71C18.1044 158.17 18.9425 158.401 19.8857 158.401C20.4084 158.401 20.897 158.332 21.3516 158.196C21.8118 158.054 22.2237 157.847 22.5874 157.574C22.9567 157.301 23.2663 156.966 23.5163 156.568C23.772 156.17 23.9482 155.716 24.0447 155.205L27.2322 155.222C27.1129 156.051 26.8544 156.83 26.4567 157.557C26.0646 158.284 25.5504 158.926 24.9141 159.483C24.2777 160.034 23.5334 160.466 22.6811 160.778C21.8288 161.085 20.8828 161.239 19.843 161.239C18.3089 161.239 16.9396 160.884 15.7351 160.173C14.5305 159.463 13.5817 158.438 12.8885 157.097C12.1953 155.756 11.8487 154.148 11.8487 152.273C11.8487 150.392 12.1982 148.784 12.897 147.449C13.5959 146.108 14.5476 145.082 15.7521 144.372C16.9567 143.662 18.3203 143.307 19.843 143.307C20.8146 143.307 21.718 143.443 22.5533 143.716C23.3885 143.989 24.1328 144.389 24.7862 144.918C25.4396 145.44 25.9766 146.082 26.397 146.844C26.8232 147.599 27.1016 148.463 27.2322 149.435ZM33.0767 153.33V161H29.9915V143.545H33.0085V150.134H33.1619C33.4688 149.395 33.9432 148.812 34.5852 148.386C35.233 147.955 36.0568 147.739 37.0568 147.739C37.9659 147.739 38.7585 147.929 39.4347 148.31C40.1108 148.69 40.6335 149.247 41.0028 149.98C41.3778 150.713 41.5653 151.608 41.5653 152.665V161H38.4801V153.142C38.4801 152.261 38.2528 151.577 37.7983 151.088C37.3494 150.594 36.7188 150.347 35.9062 150.347C35.3608 150.347 34.8722 150.466 34.4403 150.705C34.0142 150.937 33.679 151.276 33.4347 151.719C33.196 152.162 33.0767 152.699 33.0767 153.33ZM48.4773 161.264C47.6477 161.264 46.9006 161.116 46.2358 160.821C45.5767 160.52 45.054 160.077 44.6676 159.491C44.2869 158.906 44.0966 158.185 44.0966 157.327C44.0966 156.588 44.233 155.977 44.5057 155.494C44.7784 155.011 45.1506 154.625 45.6222 154.335C46.0938 154.045 46.625 153.827 47.2159 153.679C47.8125 153.526 48.429 153.415 49.0653 153.347C49.8324 153.267 50.4545 153.196 50.9318 153.134C51.4091 153.065 51.7557 152.963 51.9716 152.827C52.1932 152.685 52.304 152.466 52.304 152.17V152.119C52.304 151.477 52.1136 150.98 51.733 150.628C51.3523 150.276 50.804 150.099 50.0881 150.099C49.3324 150.099 48.733 150.264 48.2898 150.594C47.8523 150.923 47.5568 151.312 47.4034 151.761L44.5227 151.352C44.75 150.557 45.125 149.892 45.6477 149.358C46.1705 148.818 46.8097 148.415 47.5653 148.148C48.321 147.875 49.1563 147.739 50.071 147.739C50.7017 147.739 51.3295 147.812 51.9545 147.96C52.5795 148.108 53.1506 148.352 53.6676 148.693C54.1847 149.028 54.5994 149.486 54.9119 150.065C55.2301 150.645 55.3892 151.369 55.3892 152.239V161H52.4233V159.202H52.321C52.1335 159.565 51.8693 159.906 51.5284 160.224C51.1932 160.537 50.7699 160.79 50.2585 160.983C49.7528 161.17 49.1591 161.264 48.4773 161.264ZM49.2784 158.997C49.8977 158.997 50.4347 158.875 50.8892 158.631C51.3438 158.381 51.6932 158.051 51.9375 157.642C52.1875 157.233 52.3125 156.787 52.3125 156.304V154.761C52.2159 154.841 52.0511 154.915 51.8182 154.983C51.5909 155.051 51.3352 155.111 51.0511 155.162C50.767 155.213 50.4858 155.259 50.2074 155.298C49.929 155.338 49.6875 155.372 49.483 155.401C49.0227 155.463 48.6108 155.565 48.2472 155.707C47.8835 155.849 47.5966 156.048 47.3864 156.304C47.1761 156.554 47.071 156.878 47.071 157.276C47.071 157.844 47.2784 158.273 47.6932 158.562C48.108 158.852 48.6364 158.997 49.2784 158.997ZM65.0284 147.909V150.295H57.5028V147.909H65.0284ZM59.3608 144.773H62.446V157.062C62.446 157.477 62.5085 157.795 62.6335 158.017C62.7642 158.233 62.9347 158.381 63.1449 158.46C63.3551 158.54 63.5881 158.58 63.8438 158.58C64.0369 158.58 64.2131 158.565 64.3722 158.537C64.5369 158.509 64.6619 158.483 64.7472 158.46L65.267 160.872C65.1023 160.929 64.8665 160.991 64.5597 161.06C64.2585 161.128 63.8892 161.168 63.4517 161.179C62.679 161.202 61.983 161.085 61.3636 160.83C60.7443 160.568 60.2528 160.165 59.8892 159.619C59.5313 159.074 59.3551 158.392 59.3608 157.574V144.773ZM85.3913 149.119C85.2493 148.659 85.0533 148.247 84.8033 147.884C84.5589 147.514 84.2635 147.199 83.9169 146.938C83.576 146.676 83.1839 146.48 82.7408 146.349C82.2976 146.213 81.8146 146.145 81.2919 146.145C80.3544 146.145 79.5192 146.381 78.7862 146.852C78.0533 147.324 77.4766 148.017 77.0561 148.932C76.6413 149.841 76.4339 150.949 76.4339 152.256C76.4339 153.574 76.6413 154.69 77.0561 155.605C77.4709 156.52 78.0476 157.216 78.7862 157.693C79.5249 158.165 80.3828 158.401 81.3601 158.401C82.2464 158.401 83.0135 158.23 83.6612 157.889C84.3146 157.548 84.8175 157.065 85.1697 156.44C85.522 155.81 85.6982 155.071 85.6982 154.224L86.4141 154.335H81.6754V151.864H88.7578V153.96C88.7578 155.455 88.4396 156.747 87.8033 157.838C87.1669 158.929 86.2919 159.77 85.1783 160.361C84.0646 160.946 82.7862 161.239 81.343 161.239C79.7351 161.239 78.3232 160.878 77.1072 160.156C75.897 159.429 74.951 158.398 74.2692 157.062C73.593 155.722 73.255 154.131 73.255 152.29C73.255 150.881 73.4538 149.622 73.8516 148.514C74.255 147.406 74.8175 146.466 75.5391 145.693C76.2607 144.915 77.1072 144.324 78.0788 143.92C79.0504 143.511 80.1072 143.307 81.2493 143.307C82.2152 143.307 83.1158 143.449 83.951 143.733C84.7862 144.011 85.5277 144.409 86.1754 144.926C86.8288 145.443 87.3658 146.057 87.7862 146.767C88.2067 147.477 88.4822 148.261 88.6129 149.119H85.3913ZM97.4744 161.256C96.1619 161.256 95.0284 160.983 94.0739 160.438C93.125 159.886 92.3949 159.108 91.8835 158.102C91.3722 157.091 91.1165 155.901 91.1165 154.531C91.1165 153.185 91.3722 152.003 91.8835 150.986C92.4006 149.963 93.1222 149.168 94.0483 148.599C94.9744 148.026 96.0625 147.739 97.3125 147.739C98.1193 147.739 98.8807 147.869 99.5966 148.131C100.318 148.386 100.955 148.784 101.506 149.324C102.063 149.864 102.5 150.551 102.818 151.386C103.136 152.216 103.295 153.205 103.295 154.352V155.298H92.5653V153.219H100.338C100.332 152.628 100.205 152.102 99.9545 151.642C99.7045 151.176 99.3551 150.81 98.9062 150.543C98.4631 150.276 97.946 150.142 97.3551 150.142C96.7244 150.142 96.1705 150.295 95.6932 150.602C95.2159 150.903 94.8438 151.301 94.5767 151.795C94.3153 152.284 94.1818 152.821 94.1761 153.406V155.222C94.1761 155.983 94.3153 156.636 94.5938 157.182C94.8722 157.722 95.2614 158.136 95.7614 158.426C96.2614 158.71 96.8466 158.852 97.517 158.852C97.9659 158.852 98.3722 158.79 98.7358 158.665C99.0994 158.534 99.4148 158.344 99.6818 158.094C99.9489 157.844 100.151 157.534 100.287 157.165L103.168 157.489C102.986 158.25 102.639 158.915 102.128 159.483C101.622 160.045 100.974 160.483 100.185 160.795C99.3949 161.102 98.4915 161.256 97.4744 161.256ZM108.991 153.33V161H105.906V147.909H108.854V150.134H109.008C109.309 149.401 109.789 148.818 110.448 148.386C111.113 147.955 111.934 147.739 112.911 147.739C113.815 147.739 114.602 147.932 115.272 148.318C115.948 148.705 116.471 149.264 116.84 149.997C117.215 150.73 117.4 151.619 117.394 152.665V161H114.309V153.142C114.309 152.267 114.082 151.582 113.627 151.088C113.178 150.594 112.556 150.347 111.761 150.347C111.221 150.347 110.741 150.466 110.32 150.705C109.906 150.937 109.579 151.276 109.34 151.719C109.107 152.162 108.991 152.699 108.991 153.33ZM120.531 161V147.909H123.616V161H120.531ZM122.082 146.051C121.593 146.051 121.173 145.889 120.82 145.565C120.468 145.236 120.292 144.841 120.292 144.381C120.292 143.915 120.468 143.52 120.82 143.196C121.173 142.866 121.593 142.702 122.082 142.702C122.576 142.702 122.996 142.866 123.343 143.196C123.695 143.52 123.871 143.915 123.871 144.381C123.871 144.841 123.695 145.236 123.343 145.565C122.996 145.889 122.576 146.051 122.082 146.051ZM132.584 161.256C131.271 161.256 130.138 160.983 129.183 160.438C128.234 159.886 127.504 159.108 126.993 158.102C126.482 157.091 126.226 155.901 126.226 154.531C126.226 153.185 126.482 152.003 126.993 150.986C127.51 149.963 128.232 149.168 129.158 148.599C130.084 148.026 131.172 147.739 132.422 147.739C133.229 147.739 133.99 147.869 134.706 148.131C135.428 148.386 136.064 148.784 136.615 149.324C137.172 149.864 137.609 150.551 137.928 151.386C138.246 152.216 138.405 153.205 138.405 154.352V155.298H127.675V153.219H135.447C135.442 152.628 135.314 152.102 135.064 151.642C134.814 151.176 134.464 150.81 134.016 150.543C133.572 150.276 133.055 150.142 132.464 150.142C131.834 150.142 131.28 150.295 130.803 150.602C130.325 150.903 129.953 151.301 129.686 151.795C129.425 152.284 129.291 152.821 129.286 153.406V155.222C129.286 155.983 129.425 156.636 129.703 157.182C129.982 157.722 130.371 158.136 130.871 158.426C131.371 158.71 131.956 158.852 132.626 158.852C133.075 158.852 133.482 158.79 133.845 158.665C134.209 158.534 134.524 158.344 134.791 158.094C135.058 157.844 135.26 157.534 135.396 157.165L138.277 157.489C138.095 158.25 137.749 158.915 137.237 159.483C136.732 160.045 136.084 160.483 135.294 160.795C134.504 161.102 133.601 161.256 132.584 161.256Z" fill="white"/>
</svg>
