<svg width="200" height="200" viewBox="0 0 200 200" fill="none" xmlns="http://www.w3.org/2000/svg">
<path fill-rule="evenodd" clip-rule="evenodd" d="M64.5 38C60.5218 38 56.7064 39.5804 53.8934 42.3934C51.0804 45.2064 49.5 49.0218 49.5 53V93C49.5 96.9782 51.0804 100.794 53.8934 103.607C56.7064 106.42 60.5218 108 64.5 108H114.5C118.478 108 122.294 106.42 125.107 103.607C127.92 100.794 129.5 96.9782 129.5 93V85.07L140.965 96.535C141.664 97.2341 142.555 97.7101 143.525 97.9029C144.495 98.0958 145.5 97.9967 146.413 97.6184C147.327 97.24 148.108 96.5993 148.657 95.7773C149.206 94.9552 149.5 93.9888 149.5 93V53C149.5 52.0112 149.206 51.0448 148.657 50.2227C148.108 49.4007 147.327 48.76 146.413 48.3816C145.5 48.0033 144.495 47.9042 143.525 48.0971C142.555 48.2899 141.664 48.766 140.965 49.465L129.5 60.93V53C129.5 49.0218 127.92 45.2064 125.107 42.3934C122.294 39.5804 118.478 38 114.5 38H64.5Z" fill="#333333"/>
<rect x="20" y="143" width="159" height="44" rx="10" fill="#333333"/>
<path d="M31.2971 164.352H51.3851V166.872H31.2971V164.352ZM39.7451 161.016H42.9371V165.336H39.7451V161.016ZM33.7211 160.008H49.1051V162.504H33.7211V160.008ZM33.7211 154.848H48.9851V157.368H36.8891V161.592H33.7211V154.848ZM41.2571 167.976C43.6571 167.976 45.5451 168.336 46.9211 169.056C48.2971 169.76 48.9851 170.768 48.9851 172.08C48.9851 173.376 48.2971 174.376 46.9211 175.08C45.5451 175.8 43.6571 176.16 41.2571 176.16C38.8571 176.16 36.9691 175.8 35.5931 175.08C34.2331 174.376 33.5531 173.376 33.5531 172.08C33.5531 170.768 34.2331 169.76 35.5931 169.056C36.9691 168.336 38.8571 167.976 41.2571 167.976ZM41.2571 170.4C40.2651 170.4 39.4331 170.464 38.7611 170.592C38.1051 170.704 37.6091 170.888 37.2731 171.144C36.9371 171.384 36.7691 171.688 36.7691 172.056C36.7691 172.44 36.9371 172.76 37.2731 173.016C37.6091 173.256 38.1051 173.44 38.7611 173.568C39.4331 173.68 40.2651 173.736 41.2571 173.736C42.2491 173.736 43.0731 173.68 43.7291 173.568C44.4011 173.44 44.9051 173.256 45.2411 173.016C45.5771 172.76 45.7451 172.44 45.7451 172.056C45.7451 171.688 45.5771 171.384 45.2411 171.144C44.9051 170.888 44.4011 170.704 43.7291 170.592C43.0731 170.464 42.2491 170.4 41.2571 170.4ZM63.1672 156.792H69.7432V159.36H63.1672V156.792ZM63.1672 161.736H69.7432V164.28H63.1672V161.736ZM59.4712 155.088C60.5912 155.088 61.5912 155.328 62.4712 155.808C63.3512 156.272 64.0472 156.912 64.5592 157.728C65.0872 158.544 65.3512 159.48 65.3512 160.536C65.3512 161.576 65.0872 162.504 64.5592 163.32C64.0472 164.136 63.3512 164.784 62.4712 165.264C61.5912 165.728 60.5912 165.96 59.4712 165.96C58.3832 165.96 57.3912 165.728 56.4952 165.264C55.6152 164.784 54.9112 164.136 54.3832 163.32C53.8712 162.504 53.6152 161.576 53.6152 160.536C53.6152 159.48 53.8712 158.544 54.3832 157.728C54.9112 156.912 55.6152 156.272 56.4952 155.808C57.3912 155.328 58.3832 155.088 59.4712 155.088ZM59.4712 157.776C58.9432 157.776 58.4632 157.888 58.0312 158.112C57.5992 158.32 57.2552 158.632 56.9992 159.048C56.7592 159.448 56.6392 159.944 56.6392 160.536C56.6392 161.096 56.7592 161.584 56.9992 162C57.2552 162.416 57.5992 162.736 58.0312 162.96C58.4632 163.168 58.9432 163.272 59.4712 163.272C60.0312 163.272 60.5192 163.168 60.9352 162.96C61.3672 162.736 61.7032 162.416 61.9432 162C62.1832 161.584 62.3032 161.096 62.3032 160.536C62.3032 159.944 62.1832 159.448 61.9432 159.048C61.7032 158.632 61.3672 158.32 60.9352 158.112C60.5192 157.888 60.0312 157.776 59.4712 157.776ZM68.7352 153.912H71.9512V166.92H68.7352V153.912ZM64.4152 167.376C65.9832 167.376 67.3272 167.552 68.4472 167.904C69.5832 168.24 70.4632 168.736 71.0872 169.392C71.7112 170.048 72.0232 170.832 72.0232 171.744C72.0232 172.656 71.7112 173.44 71.0872 174.096C70.4632 174.768 69.5832 175.272 68.4472 175.608C67.3272 175.96 65.9832 176.136 64.4152 176.136C62.8472 176.136 61.4952 175.96 60.3592 175.608C59.2232 175.272 58.3432 174.768 57.7192 174.096C57.1112 173.44 56.8072 172.656 56.8072 171.744C56.8072 170.832 57.1112 170.048 57.7192 169.392C58.3432 168.736 59.2232 168.24 60.3592 167.904C61.4952 167.552 62.8472 167.376 64.4152 167.376ZM64.4152 169.824C63.4552 169.824 62.6392 169.896 61.9672 170.04C61.2952 170.184 60.7912 170.4 60.4552 170.688C60.1192 170.96 59.9512 171.312 59.9512 171.744C59.9512 172.176 60.1192 172.536 60.4552 172.824C60.7912 173.112 61.2952 173.328 61.9672 173.472C62.6392 173.6 63.4552 173.664 64.4152 173.664C65.3912 173.664 66.2072 173.6 66.8632 173.472C67.5352 173.328 68.0392 173.112 68.3752 172.824C68.7112 172.536 68.8792 172.176 68.8792 171.744C68.8792 171.312 68.7112 170.96 68.3752 170.688C68.0392 170.4 67.5352 170.184 66.8632 170.04C66.2072 169.896 65.3912 169.824 64.4152 169.824ZM80.3013 155.088H82.9173V157.08C82.9173 158.536 82.6933 159.92 82.2453 161.232C81.8133 162.528 81.1413 163.664 80.2293 164.64C79.3173 165.616 78.1573 166.344 76.7493 166.824L75.0693 164.328C76.3173 163.896 77.3253 163.312 78.0933 162.576C78.8613 161.824 79.4213 160.968 79.7733 160.008C80.1253 159.048 80.3013 158.072 80.3013 157.08V155.088ZM80.9493 155.088H83.5173V157.368C83.5173 158.04 83.6133 158.696 83.8053 159.336C84.0133 159.976 84.3173 160.576 84.7173 161.136C85.1173 161.696 85.6293 162.2 86.2533 162.648C86.8773 163.08 87.6293 163.432 88.5093 163.704L86.8533 166.2C85.5093 165.752 84.3973 165.088 83.5173 164.208C82.6533 163.328 82.0053 162.304 81.5733 161.136C81.1573 159.968 80.9493 158.712 80.9493 157.368V155.088ZM89.7093 153.912H92.9013V167.04H89.7093V153.912ZM92.0373 159.048H95.8533V161.688H92.0373V159.048ZM85.6533 167.544C87.2053 167.544 88.5413 167.72 89.6613 168.072C90.7813 168.408 91.6453 168.896 92.2533 169.536C92.8613 170.16 93.1653 170.928 93.1653 171.84C93.1653 172.736 92.8613 173.504 92.2533 174.144C91.6453 174.784 90.7813 175.272 89.6613 175.608C88.5413 175.96 87.2053 176.136 85.6533 176.136C84.1173 176.136 82.7813 175.96 81.6453 175.608C80.5253 175.272 79.6533 174.784 79.0293 174.144C78.4213 173.504 78.1173 172.736 78.1173 171.84C78.1173 170.928 78.4213 170.16 79.0293 169.536C79.6533 168.896 80.5253 168.408 81.6453 168.072C82.7813 167.72 84.1173 167.544 85.6533 167.544ZM85.6533 170.016C84.7093 170.016 83.9173 170.088 83.2773 170.232C82.6373 170.36 82.1493 170.56 81.8133 170.832C81.4773 171.088 81.3093 171.424 81.3093 171.84C81.3093 172.24 81.4773 172.576 81.8133 172.848C82.1493 173.12 82.6373 173.328 83.2773 173.472C83.9173 173.6 84.7093 173.664 85.6533 173.664C86.5973 173.664 87.3893 173.6 88.0293 173.472C88.6853 173.328 89.1733 173.12 89.4933 172.848C89.8293 172.576 89.9973 172.24 89.9973 171.84C89.9973 171.424 89.8293 171.088 89.4933 170.832C89.1733 170.56 88.6853 170.36 88.0293 170.232C87.3893 170.088 86.5973 170.016 85.6533 170.016ZM107.445 155.232H109.941V157.8C109.941 159.064 109.765 160.296 109.413 161.496C109.061 162.68 108.509 163.744 107.757 164.688C107.005 165.632 106.021 166.36 104.805 166.872L103.149 164.424C104.173 163.96 104.997 163.376 105.621 162.672C106.261 161.952 106.725 161.168 107.013 160.32C107.301 159.472 107.445 158.632 107.445 157.8V155.232ZM108.045 155.232H110.541V157.8C110.541 158.6 110.677 159.384 110.949 160.152C111.221 160.904 111.661 161.592 112.269 162.216C112.893 162.84 113.685 163.352 114.645 163.752L112.965 166.176C111.813 165.712 110.869 165.056 110.133 164.208C109.413 163.344 108.885 162.368 108.549 161.28C108.213 160.176 108.045 159.016 108.045 157.8V155.232ZM119.349 153.912H122.397V167.496H119.349V153.912ZM116.685 159.312H120.213V161.88H116.685V159.312ZM114.669 154.32H117.645V166.8H114.669V154.32ZM114.861 167.808C116.413 167.808 117.757 167.976 118.893 168.312C120.045 168.632 120.933 169.104 121.557 169.728C122.181 170.352 122.493 171.096 122.493 171.96C122.493 172.84 122.181 173.592 121.557 174.216C120.933 174.84 120.045 175.312 118.893 175.632C117.757 175.968 116.413 176.136 114.861 176.136C113.309 176.136 111.957 175.968 110.805 175.632C109.653 175.312 108.765 174.84 108.141 174.216C107.517 173.592 107.205 172.84 107.205 171.96C107.205 171.096 107.517 170.352 108.141 169.728C108.765 169.104 109.653 168.632 110.805 168.312C111.957 167.976 113.309 167.808 114.861 167.808ZM114.861 170.208C113.421 170.208 112.309 170.352 111.525 170.64C110.757 170.928 110.373 171.368 110.373 171.96C110.373 172.552 110.757 173 111.525 173.304C112.309 173.592 113.421 173.736 114.861 173.736C115.805 173.736 116.605 173.672 117.261 173.544C117.933 173.4 118.437 173.2 118.773 172.944C119.125 172.688 119.301 172.36 119.301 171.96C119.301 171.368 118.917 170.928 118.149 170.64C117.381 170.352 116.285 170.208 114.861 170.208ZM130.699 155.064H133.339V157.032C133.339 158.52 133.107 159.92 132.643 161.232C132.195 162.544 131.507 163.688 130.579 164.664C129.651 165.64 128.459 166.376 127.003 166.872L125.323 164.304C126.603 163.904 127.635 163.328 128.419 162.576C129.203 161.824 129.779 160.968 130.147 160.008C130.515 159.048 130.699 158.056 130.699 157.032V155.064ZM131.347 155.064H133.939V156.888C133.939 157.864 134.107 158.808 134.443 159.72C134.779 160.616 135.315 161.416 136.051 162.12C136.787 162.808 137.739 163.344 138.907 163.728L137.251 166.224C135.891 165.744 134.771 165.048 133.891 164.136C133.027 163.224 132.387 162.152 131.971 160.92C131.555 159.672 131.347 158.328 131.347 156.888V155.064ZM140.923 153.912H144.139V166.92H140.923V153.912ZM136.603 167.496C138.955 167.496 140.811 167.88 142.171 168.648C143.531 169.4 144.211 170.448 144.211 171.792C144.211 173.168 143.531 174.232 142.171 174.984C140.811 175.752 138.955 176.136 136.603 176.136C134.251 176.136 132.395 175.752 131.035 174.984C129.675 174.232 128.995 173.168 128.995 171.792C128.995 170.448 129.675 169.4 131.035 168.648C132.395 167.88 134.251 167.496 136.603 167.496ZM136.603 169.968C135.643 169.968 134.835 170.032 134.179 170.16C133.523 170.288 133.019 170.496 132.667 170.784C132.331 171.056 132.163 171.392 132.163 171.792C132.163 172.208 132.331 172.56 132.667 172.848C133.019 173.12 133.523 173.328 134.179 173.472C134.835 173.6 135.643 173.664 136.603 173.664C137.563 173.664 138.371 173.6 139.027 173.472C139.683 173.328 140.179 173.12 140.515 172.848C140.851 172.56 141.019 172.208 141.019 171.792C141.019 171.392 140.851 171.056 140.515 170.784C140.179 170.496 139.683 170.288 139.027 170.16C138.371 170.032 137.563 169.968 136.603 169.968ZM136.867 157.944H141.403V160.536H136.867V157.944ZM162.929 153.888H166.121V176.112H162.929V153.888ZM156.377 156.192H159.521C159.521 157.888 159.353 159.512 159.017 161.064C158.697 162.6 158.153 164.048 157.385 165.408C156.633 166.768 155.593 168.032 154.265 169.2C152.953 170.352 151.313 171.408 149.345 172.368L147.665 169.848C149.809 168.808 151.513 167.664 152.777 166.416C154.057 165.152 154.977 163.728 155.537 162.144C156.097 160.544 156.377 158.752 156.377 156.768V156.192ZM148.865 156.192H157.865V158.736H148.865V156.192Z" fill="white"/>
</svg>
