<svg width="200" height="200" viewBox="0 0 200 200" fill="none" xmlns="http://www.w3.org/2000/svg">
<path d="M82 80.5L94.5 95.5L112 73L134.5 103H64.5M144.5 108V38C144.5 35.3478 143.446 32.8043 141.571 30.9289C139.696 29.0536 137.152 28 134.5 28H64.5C61.8478 28 59.3043 29.0536 57.4289 30.9289C55.5536 32.8043 54.5 35.3478 54.5 38V108C54.5 110.652 55.5536 113.196 57.4289 115.071C59.3043 116.946 61.8478 118 64.5 118H134.5C137.152 118 139.696 116.946 141.571 115.071C143.446 113.196 144.5 110.652 144.5 108Z" fill="#333333"/>
<rect x="20" y="143" width="159" height="44" rx="10" fill="#333333"/>
<path d="M46.5131 153.864H49.7051V176.16H46.5131V153.864ZM37.7291 155.424C38.8651 155.424 39.8731 155.752 40.7531 156.408C41.6331 157.048 42.3211 157.968 42.8171 159.168C43.3291 160.352 43.5851 161.752 43.5851 163.368C43.5851 165 43.3291 166.416 42.8171 167.616C42.3211 168.8 41.6331 169.72 40.7531 170.376C39.8731 171.016 38.8651 171.336 37.7291 171.336C36.6091 171.336 35.6091 171.016 34.7291 170.376C33.8491 169.72 33.1531 168.8 32.6411 167.616C32.1451 166.416 31.8971 165 31.8971 163.368C31.8971 161.752 32.1451 160.352 32.6411 159.168C33.1531 157.968 33.8491 157.048 34.7291 156.408C35.6091 155.752 36.6091 155.424 37.7291 155.424ZM37.7291 158.328C37.1851 158.328 36.7051 158.52 36.2891 158.904C35.8731 159.288 35.5451 159.856 35.3051 160.608C35.0811 161.344 34.9691 162.264 34.9691 163.368C34.9691 164.456 35.0811 165.384 35.3051 166.152C35.5451 166.904 35.8731 167.472 36.2891 167.856C36.7051 168.24 37.1851 168.432 37.7291 168.432C38.2891 168.432 38.7771 168.24 39.1931 167.856C39.6091 167.472 39.9291 166.904 40.1531 166.152C40.3931 165.384 40.5131 164.456 40.5131 163.368C40.5131 162.264 40.3931 161.344 40.1531 160.608C39.9291 159.856 39.6091 159.288 39.1931 158.904C38.7771 158.52 38.2891 158.328 37.7291 158.328ZM54.4312 155.88H65.1112V170.832H54.4312V155.88ZM61.9912 158.4H57.5752V168.312H61.9912V158.4ZM68.5912 153.864H71.7832V176.16H68.5912V153.864ZM80.7813 157.416H83.3253V159.912C83.3253 161.192 83.1893 162.448 82.9173 163.68C82.6613 164.912 82.2693 166.072 81.7413 167.16C81.2293 168.232 80.5813 169.184 79.7973 170.016C79.0133 170.832 78.1013 171.48 77.0613 171.96L75.2373 169.44C76.1653 169.008 76.9733 168.448 77.6613 167.76C78.3653 167.072 78.9413 166.304 79.3893 165.456C79.8533 164.592 80.1973 163.688 80.4213 162.744C80.6613 161.784 80.7813 160.84 80.7813 159.912V157.416ZM81.4773 157.416H83.9973V159.912C83.9973 160.792 84.1093 161.688 84.3333 162.6C84.5733 163.496 84.9173 164.352 85.3653 165.168C85.8133 165.968 86.3813 166.688 87.0693 167.328C87.7573 167.968 88.5733 168.48 89.5173 168.864L87.7653 171.408C86.7093 170.944 85.7893 170.32 85.0053 169.536C84.2213 168.752 83.5653 167.848 83.0373 166.824C82.5093 165.8 82.1173 164.704 81.8613 163.536C81.6053 162.352 81.4773 161.144 81.4773 159.912V157.416ZM76.1253 156.024H88.6053V158.664H76.1253V156.024ZM90.6693 153.912H93.8613V176.136H90.6693V153.912ZM107.445 155.232H109.941V157.8C109.941 159.064 109.765 160.296 109.413 161.496C109.061 162.68 108.509 163.744 107.757 164.688C107.005 165.632 106.021 166.36 104.805 166.872L103.149 164.424C104.173 163.96 104.997 163.376 105.621 162.672C106.261 161.952 106.725 161.168 107.013 160.32C107.301 159.472 107.445 158.632 107.445 157.8V155.232ZM108.045 155.232H110.541V157.8C110.541 158.6 110.677 159.384 110.949 160.152C111.221 160.904 111.661 161.592 112.269 162.216C112.893 162.84 113.685 163.352 114.645 163.752L112.965 166.176C111.813 165.712 110.869 165.056 110.133 164.208C109.413 163.344 108.885 162.368 108.549 161.28C108.213 160.176 108.045 159.016 108.045 157.8V155.232ZM119.349 153.912H122.397V167.496H119.349V153.912ZM116.685 159.312H120.213V161.88H116.685V159.312ZM114.669 154.32H117.645V166.8H114.669V154.32ZM114.861 167.808C116.413 167.808 117.757 167.976 118.893 168.312C120.045 168.632 120.933 169.104 121.557 169.728C122.181 170.352 122.493 171.096 122.493 171.96C122.493 172.84 122.181 173.592 121.557 174.216C120.933 174.84 120.045 175.312 118.893 175.632C117.757 175.968 116.413 176.136 114.861 176.136C113.309 176.136 111.957 175.968 110.805 175.632C109.653 175.312 108.765 174.84 108.141 174.216C107.517 173.592 107.205 172.84 107.205 171.96C107.205 171.096 107.517 170.352 108.141 169.728C108.765 169.104 109.653 168.632 110.805 168.312C111.957 167.976 113.309 167.808 114.861 167.808ZM114.861 170.208C113.421 170.208 112.309 170.352 111.525 170.64C110.757 170.928 110.373 171.368 110.373 171.96C110.373 172.552 110.757 173 111.525 173.304C112.309 173.592 113.421 173.736 114.861 173.736C115.805 173.736 116.605 173.672 117.261 173.544C117.933 173.4 118.437 173.2 118.773 172.944C119.125 172.688 119.301 172.36 119.301 171.96C119.301 171.368 118.917 170.928 118.149 170.64C117.381 170.352 116.285 170.208 114.861 170.208ZM130.699 155.064H133.339V157.032C133.339 158.52 133.107 159.92 132.643 161.232C132.195 162.544 131.507 163.688 130.579 164.664C129.651 165.64 128.459 166.376 127.003 166.872L125.323 164.304C126.603 163.904 127.635 163.328 128.419 162.576C129.203 161.824 129.779 160.968 130.147 160.008C130.515 159.048 130.699 158.056 130.699 157.032V155.064ZM131.347 155.064H133.939V156.888C133.939 157.864 134.107 158.808 134.443 159.72C134.779 160.616 135.315 161.416 136.051 162.12C136.787 162.808 137.739 163.344 138.907 163.728L137.251 166.224C135.891 165.744 134.771 165.048 133.891 164.136C133.027 163.224 132.387 162.152 131.971 160.92C131.555 159.672 131.347 158.328 131.347 156.888V155.064ZM140.923 153.912H144.139V166.92H140.923V153.912ZM136.603 167.496C138.955 167.496 140.811 167.88 142.171 168.648C143.531 169.4 144.211 170.448 144.211 171.792C144.211 173.168 143.531 174.232 142.171 174.984C140.811 175.752 138.955 176.136 136.603 176.136C134.251 176.136 132.395 175.752 131.035 174.984C129.675 174.232 128.995 173.168 128.995 171.792C128.995 170.448 129.675 169.4 131.035 168.648C132.395 167.88 134.251 167.496 136.603 167.496ZM136.603 169.968C135.643 169.968 134.835 170.032 134.179 170.16C133.523 170.288 133.019 170.496 132.667 170.784C132.331 171.056 132.163 171.392 132.163 171.792C132.163 172.208 132.331 172.56 132.667 172.848C133.019 173.12 133.523 173.328 134.179 173.472C134.835 173.6 135.643 173.664 136.603 173.664C137.563 173.664 138.371 173.6 139.027 173.472C139.683 173.328 140.179 173.12 140.515 172.848C140.851 172.56 141.019 172.208 141.019 171.792C141.019 171.392 140.851 171.056 140.515 170.784C140.179 170.496 139.683 170.288 139.027 170.16C138.371 170.032 137.563 169.968 136.603 169.968ZM136.867 157.944H141.403V160.536H136.867V157.944ZM162.929 153.888H166.121V176.112H162.929V153.888ZM156.377 156.192H159.521C159.521 157.888 159.353 159.512 159.017 161.064C158.697 162.6 158.153 164.048 157.385 165.408C156.633 166.768 155.593 168.032 154.265 169.2C152.953 170.352 151.313 171.408 149.345 172.368L147.665 169.848C149.809 168.808 151.513 167.664 152.777 166.416C154.057 165.152 154.977 163.728 155.537 162.144C156.097 160.544 156.377 158.752 156.377 156.768V156.192ZM148.865 156.192H157.865V158.736H148.865V156.192Z" fill="white"/>
</svg>
