<svg width="160" height="174" viewBox="0 0 160 174" fill="none" xmlns="http://www.w3.org/2000/svg">
<path d="M62.5 67.5L75 82.5L92.5 60L115 90H45M125 95V25C125 22.3478 123.946 19.8043 122.071 17.9289C120.196 16.0536 117.652 15 115 15H45C42.3478 15 39.8043 16.0536 37.9289 17.9289C36.0536 19.8043 35 22.3478 35 25V95C35 97.6522 36.0536 100.196 37.9289 102.071C39.8043 103.946 42.3478 105 45 105H115C117.652 105 120.196 103.946 122.071 102.071C123.946 100.196 125 97.6522 125 95Z" fill="#333333"/>
<rect x="0.5" y="130" width="159" height="44" rx="10" fill="#333333"/>
<path d="M27.0131 140.864H30.2051V163.16H27.0131V140.864ZM18.2291 142.424C19.3651 142.424 20.3731 142.752 21.2531 143.408C22.1331 144.048 22.8211 144.968 23.3171 146.168C23.8291 147.352 24.0851 148.752 24.0851 150.368C24.0851 152 23.8291 153.416 23.3171 154.616C22.8211 155.8 22.1331 156.72 21.2531 157.376C20.3731 158.016 19.3651 158.336 18.2291 158.336C17.1091 158.336 16.1091 158.016 15.2291 157.376C14.3491 156.72 13.6531 155.8 13.1411 154.616C12.6451 153.416 12.3971 152 12.3971 150.368C12.3971 148.752 12.6451 147.352 13.1411 146.168C13.6531 144.968 14.3491 144.048 15.2291 143.408C16.1091 142.752 17.1091 142.424 18.2291 142.424ZM18.2291 145.328C17.6851 145.328 17.2051 145.52 16.7891 145.904C16.3731 146.288 16.0451 146.856 15.8051 147.608C15.5811 148.344 15.4691 149.264 15.4691 150.368C15.4691 151.456 15.5811 152.384 15.8051 153.152C16.0451 153.904 16.3731 154.472 16.7891 154.856C17.2051 155.24 17.6851 155.432 18.2291 155.432C18.7891 155.432 19.2771 155.24 19.6931 154.856C20.1091 154.472 20.4291 153.904 20.6531 153.152C20.8931 152.384 21.0131 151.456 21.0131 150.368C21.0131 149.264 20.8931 148.344 20.6531 147.608C20.4291 146.856 20.1091 146.288 19.6931 145.904C19.2771 145.52 18.7891 145.328 18.2291 145.328ZM34.9312 142.88H45.6112V157.832H34.9312V142.88ZM42.4912 145.4H38.0752V155.312H42.4912V145.4ZM49.0912 140.864H52.2832V163.16H49.0912V140.864ZM61.2813 144.416H63.8253V146.912C63.8253 148.192 63.6893 149.448 63.4173 150.68C63.1613 151.912 62.7693 153.072 62.2413 154.16C61.7293 155.232 61.0813 156.184 60.2973 157.016C59.5133 157.832 58.6013 158.48 57.5613 158.96L55.7373 156.44C56.6653 156.008 57.4733 155.448 58.1613 154.76C58.8653 154.072 59.4413 153.304 59.8893 152.456C60.3533 151.592 60.6973 150.688 60.9213 149.744C61.1613 148.784 61.2813 147.84 61.2813 146.912V144.416ZM61.9773 144.416H64.4973V146.912C64.4973 147.792 64.6093 148.688 64.8333 149.6C65.0733 150.496 65.4173 151.352 65.8653 152.168C66.3133 152.968 66.8813 153.688 67.5693 154.328C68.2573 154.968 69.0733 155.48 70.0173 155.864L68.2653 158.408C67.2093 157.944 66.2893 157.32 65.5053 156.536C64.7213 155.752 64.0653 154.848 63.5373 153.824C63.0093 152.8 62.6173 151.704 62.3613 150.536C62.1053 149.352 61.9773 148.144 61.9773 146.912V144.416ZM56.6253 143.024H69.1053V145.664H56.6253V143.024ZM71.1693 140.912H74.3613V163.136H71.1693V140.912ZM87.9446 142.232H90.4406V144.8C90.4406 146.064 90.2646 147.296 89.9126 148.496C89.5606 149.68 89.0086 150.744 88.2566 151.688C87.5046 152.632 86.5206 153.36 85.3046 153.872L83.6486 151.424C84.6726 150.96 85.4966 150.376 86.1206 149.672C86.7606 148.952 87.2246 148.168 87.5126 147.32C87.8006 146.472 87.9446 145.632 87.9446 144.8V142.232ZM88.5446 142.232H91.0406V144.8C91.0406 145.6 91.1766 146.384 91.4486 147.152C91.7206 147.904 92.1606 148.592 92.7686 149.216C93.3926 149.84 94.1846 150.352 95.1446 150.752L93.4646 153.176C92.3126 152.712 91.3686 152.056 90.6326 151.208C89.9126 150.344 89.3846 149.368 89.0486 148.28C88.7126 147.176 88.5446 146.016 88.5446 144.8V142.232ZM99.8486 140.912H102.897V154.496H99.8486V140.912ZM97.1846 146.312H100.713V148.88H97.1846V146.312ZM95.1686 141.32H98.1446V153.8H95.1686V141.32ZM95.3606 154.808C96.9126 154.808 98.2566 154.976 99.3926 155.312C100.545 155.632 101.433 156.104 102.057 156.728C102.681 157.352 102.993 158.096 102.993 158.96C102.993 159.84 102.681 160.592 102.057 161.216C101.433 161.84 100.545 162.312 99.3926 162.632C98.2566 162.968 96.9126 163.136 95.3606 163.136C93.8086 163.136 92.4566 162.968 91.3046 162.632C90.1526 162.312 89.2646 161.84 88.6406 161.216C88.0166 160.592 87.7046 159.84 87.7046 158.96C87.7046 158.096 88.0166 157.352 88.6406 156.728C89.2646 156.104 90.1526 155.632 91.3046 155.312C92.4566 154.976 93.8086 154.808 95.3606 154.808ZM95.3606 157.208C93.9206 157.208 92.8086 157.352 92.0246 157.64C91.2566 157.928 90.8726 158.368 90.8726 158.96C90.8726 159.552 91.2566 160 92.0246 160.304C92.8086 160.592 93.9206 160.736 95.3606 160.736C96.3046 160.736 97.1046 160.672 97.7606 160.544C98.4326 160.4 98.9366 160.2 99.2726 159.944C99.6246 159.688 99.8006 159.36 99.8006 158.96C99.8006 158.368 99.4166 157.928 98.6486 157.64C97.8806 157.352 96.7846 157.208 95.3606 157.208ZM111.199 142.064H113.839V144.032C113.839 145.52 113.607 146.92 113.143 148.232C112.695 149.544 112.007 150.688 111.079 151.664C110.151 152.64 108.959 153.376 107.503 153.872L105.823 151.304C107.103 150.904 108.135 150.328 108.919 149.576C109.703 148.824 110.279 147.968 110.647 147.008C111.015 146.048 111.199 145.056 111.199 144.032V142.064ZM111.847 142.064H114.439V143.888C114.439 144.864 114.607 145.808 114.943 146.72C115.279 147.616 115.815 148.416 116.551 149.12C117.287 149.808 118.239 150.344 119.407 150.728L117.751 153.224C116.391 152.744 115.271 152.048 114.391 151.136C113.527 150.224 112.887 149.152 112.471 147.92C112.055 146.672 111.847 145.328 111.847 143.888V142.064ZM121.423 140.912H124.639V153.92H121.423V140.912ZM117.103 154.496C119.455 154.496 121.311 154.88 122.671 155.648C124.031 156.4 124.711 157.448 124.711 158.792C124.711 160.168 124.031 161.232 122.671 161.984C121.311 162.752 119.455 163.136 117.103 163.136C114.751 163.136 112.895 162.752 111.535 161.984C110.175 161.232 109.495 160.168 109.495 158.792C109.495 157.448 110.175 156.4 111.535 155.648C112.895 154.88 114.751 154.496 117.103 154.496ZM117.103 156.968C116.143 156.968 115.335 157.032 114.679 157.16C114.023 157.288 113.519 157.496 113.167 157.784C112.831 158.056 112.663 158.392 112.663 158.792C112.663 159.208 112.831 159.56 113.167 159.848C113.519 160.12 114.023 160.328 114.679 160.472C115.335 160.6 116.143 160.664 117.103 160.664C118.063 160.664 118.871 160.6 119.527 160.472C120.183 160.328 120.679 160.12 121.015 159.848C121.351 159.56 121.519 159.208 121.519 158.792C121.519 158.392 121.351 158.056 121.015 157.784C120.679 157.496 120.183 157.288 119.527 157.16C118.871 157.032 118.063 156.968 117.103 156.968ZM117.367 144.944H121.903V147.536H117.367V144.944ZM143.429 140.888H146.621V163.112H143.429V140.888ZM136.877 143.192H140.021C140.021 144.888 139.853 146.512 139.517 148.064C139.197 149.6 138.653 151.048 137.885 152.408C137.133 153.768 136.093 155.032 134.765 156.2C133.453 157.352 131.813 158.408 129.845 159.368L128.165 156.848C130.309 155.808 132.013 154.664 133.277 153.416C134.557 152.152 135.477 150.728 136.037 149.144C136.597 147.544 136.877 145.752 136.877 143.768V143.192ZM129.365 143.192H138.365V145.736H129.365V143.192Z" fill="white"/>
</svg>
