<svg width="160" height="174" viewBox="0 0 160 174" fill="none" xmlns="http://www.w3.org/2000/svg">
<path fill-rule="evenodd" clip-rule="evenodd" d="M45 25C41.0218 25 37.2064 26.5804 34.3934 29.3934C31.5804 32.2064 30 36.0218 30 40V80C30 83.9782 31.5804 87.7936 34.3934 90.6066C37.2064 93.4196 41.0218 95 45 95H95C98.9782 95 102.794 93.4196 105.607 90.6066C108.42 87.7936 110 83.9782 110 80V72.07L121.465 83.535C122.164 84.2341 123.055 84.7101 124.025 84.9029C124.995 85.0958 126 84.9967 126.913 84.6184C127.827 84.24 128.608 83.5993 129.157 82.7773C129.706 81.9552 130 80.9888 130 80V40C130 39.0112 129.706 38.0448 129.157 37.2227C128.608 36.4007 127.827 35.76 126.913 35.3816C126 35.0033 124.995 34.9042 124.025 35.0971C123.055 35.2899 122.164 35.766 121.465 36.465L110 47.93V40C110 36.0218 108.42 32.2064 105.607 29.3934C102.794 26.5804 98.9782 25 95 25H45Z" fill="#333333"/>
<rect x="0.5" y="130" width="159" height="44" rx="10" fill="#333333"/>
<path d="M11.7971 151.352H31.8851V153.872H11.7971V151.352ZM20.2451 148.016H23.4371V152.336H20.2451V148.016ZM14.2211 147.008H29.6051V149.504H14.2211V147.008ZM14.2211 141.848H29.4851V144.368H17.3891V148.592H14.2211V141.848ZM21.7571 154.976C24.1571 154.976 26.0451 155.336 27.4211 156.056C28.7971 156.76 29.4851 157.768 29.4851 159.08C29.4851 160.376 28.7971 161.376 27.4211 162.08C26.0451 162.8 24.1571 163.16 21.7571 163.16C19.3571 163.16 17.4691 162.8 16.0931 162.08C14.7331 161.376 14.0531 160.376 14.0531 159.08C14.0531 157.768 14.7331 156.76 16.0931 156.056C17.4691 155.336 19.3571 154.976 21.7571 154.976ZM21.7571 157.4C20.7651 157.4 19.9331 157.464 19.2611 157.592C18.6051 157.704 18.1091 157.888 17.7731 158.144C17.4371 158.384 17.2691 158.688 17.2691 159.056C17.2691 159.44 17.4371 159.76 17.7731 160.016C18.1091 160.256 18.6051 160.44 19.2611 160.568C19.9331 160.68 20.7651 160.736 21.7571 160.736C22.7491 160.736 23.5731 160.68 24.2291 160.568C24.9011 160.44 25.4051 160.256 25.7411 160.016C26.0771 159.76 26.2451 159.44 26.2451 159.056C26.2451 158.688 26.0771 158.384 25.7411 158.144C25.4051 157.888 24.9011 157.704 24.2291 157.592C23.5731 157.464 22.7491 157.4 21.7571 157.4ZM43.6672 143.792H50.2432V146.36H43.6672V143.792ZM43.6672 148.736H50.2432V151.28H43.6672V148.736ZM39.9712 142.088C41.0912 142.088 42.0912 142.328 42.9712 142.808C43.8512 143.272 44.5472 143.912 45.0592 144.728C45.5872 145.544 45.8512 146.48 45.8512 147.536C45.8512 148.576 45.5872 149.504 45.0592 150.32C44.5472 151.136 43.8512 151.784 42.9712 152.264C42.0912 152.728 41.0912 152.96 39.9712 152.96C38.8832 152.96 37.8912 152.728 36.9952 152.264C36.1152 151.784 35.4112 151.136 34.8832 150.32C34.3712 149.504 34.1152 148.576 34.1152 147.536C34.1152 146.48 34.3712 145.544 34.8832 144.728C35.4112 143.912 36.1152 143.272 36.9952 142.808C37.8912 142.328 38.8832 142.088 39.9712 142.088ZM39.9712 144.776C39.4432 144.776 38.9632 144.888 38.5312 145.112C38.0992 145.32 37.7552 145.632 37.4992 146.048C37.2592 146.448 37.1392 146.944 37.1392 147.536C37.1392 148.096 37.2592 148.584 37.4992 149C37.7552 149.416 38.0992 149.736 38.5312 149.96C38.9632 150.168 39.4432 150.272 39.9712 150.272C40.5312 150.272 41.0192 150.168 41.4352 149.96C41.8672 149.736 42.2032 149.416 42.4432 149C42.6832 148.584 42.8032 148.096 42.8032 147.536C42.8032 146.944 42.6832 146.448 42.4432 146.048C42.2032 145.632 41.8672 145.32 41.4352 145.112C41.0192 144.888 40.5312 144.776 39.9712 144.776ZM49.2352 140.912H52.4512V153.92H49.2352V140.912ZM44.9152 154.376C46.4832 154.376 47.8272 154.552 48.9472 154.904C50.0832 155.24 50.9632 155.736 51.5872 156.392C52.2112 157.048 52.5232 157.832 52.5232 158.744C52.5232 159.656 52.2112 160.44 51.5872 161.096C50.9632 161.768 50.0832 162.272 48.9472 162.608C47.8272 162.96 46.4832 163.136 44.9152 163.136C43.3472 163.136 41.9952 162.96 40.8592 162.608C39.7232 162.272 38.8432 161.768 38.2192 161.096C37.6112 160.44 37.3072 159.656 37.3072 158.744C37.3072 157.832 37.6112 157.048 38.2192 156.392C38.8432 155.736 39.7232 155.24 40.8592 154.904C41.9952 154.552 43.3472 154.376 44.9152 154.376ZM44.9152 156.824C43.9552 156.824 43.1392 156.896 42.4672 157.04C41.7952 157.184 41.2912 157.4 40.9552 157.688C40.6192 157.96 40.4512 158.312 40.4512 158.744C40.4512 159.176 40.6192 159.536 40.9552 159.824C41.2912 160.112 41.7952 160.328 42.4672 160.472C43.1392 160.6 43.9552 160.664 44.9152 160.664C45.8912 160.664 46.7072 160.6 47.3632 160.472C48.0352 160.328 48.5392 160.112 48.8752 159.824C49.2112 159.536 49.3792 159.176 49.3792 158.744C49.3792 158.312 49.2112 157.96 48.8752 157.688C48.5392 157.4 48.0352 157.184 47.3632 157.04C46.7072 156.896 45.8912 156.824 44.9152 156.824ZM60.8013 142.088H63.4173V144.08C63.4173 145.536 63.1933 146.92 62.7453 148.232C62.3133 149.528 61.6413 150.664 60.7293 151.64C59.8173 152.616 58.6573 153.344 57.2493 153.824L55.5693 151.328C56.8173 150.896 57.8253 150.312 58.5933 149.576C59.3613 148.824 59.9213 147.968 60.2733 147.008C60.6253 146.048 60.8013 145.072 60.8013 144.08V142.088ZM61.4493 142.088H64.0173V144.368C64.0173 145.04 64.1133 145.696 64.3053 146.336C64.5133 146.976 64.8173 147.576 65.2173 148.136C65.6173 148.696 66.1293 149.2 66.7533 149.648C67.3773 150.08 68.1293 150.432 69.0093 150.704L67.3533 153.2C66.0093 152.752 64.8973 152.088 64.0173 151.208C63.1533 150.328 62.5053 149.304 62.0733 148.136C61.6573 146.968 61.4493 145.712 61.4493 144.368V142.088ZM70.2093 140.912H73.4013V154.04H70.2093V140.912ZM72.5373 146.048H76.3533V148.688H72.5373V146.048ZM66.1533 154.544C67.7053 154.544 69.0413 154.72 70.1613 155.072C71.2813 155.408 72.1453 155.896 72.7533 156.536C73.3613 157.16 73.6653 157.928 73.6653 158.84C73.6653 159.736 73.3613 160.504 72.7533 161.144C72.1453 161.784 71.2813 162.272 70.1613 162.608C69.0413 162.96 67.7053 163.136 66.1533 163.136C64.6173 163.136 63.2813 162.96 62.1453 162.608C61.0253 162.272 60.1533 161.784 59.5293 161.144C58.9213 160.504 58.6173 159.736 58.6173 158.84C58.6173 157.928 58.9213 157.16 59.5293 156.536C60.1533 155.896 61.0253 155.408 62.1453 155.072C63.2813 154.72 64.6173 154.544 66.1533 154.544ZM66.1533 157.016C65.2093 157.016 64.4173 157.088 63.7773 157.232C63.1373 157.36 62.6493 157.56 62.3133 157.832C61.9773 158.088 61.8093 158.424 61.8093 158.84C61.8093 159.24 61.9773 159.576 62.3133 159.848C62.6493 160.12 63.1373 160.328 63.7773 160.472C64.4173 160.6 65.2093 160.664 66.1533 160.664C67.0973 160.664 67.8893 160.6 68.5293 160.472C69.1853 160.328 69.6733 160.12 69.9933 159.848C70.3293 159.576 70.4973 159.24 70.4973 158.84C70.4973 158.424 70.3293 158.088 69.9933 157.832C69.6733 157.56 69.1853 157.36 68.5293 157.232C67.8893 157.088 67.0973 157.016 66.1533 157.016ZM87.9446 142.232H90.4406V144.8C90.4406 146.064 90.2646 147.296 89.9126 148.496C89.5606 149.68 89.0086 150.744 88.2566 151.688C87.5046 152.632 86.5206 153.36 85.3046 153.872L83.6486 151.424C84.6726 150.96 85.4966 150.376 86.1206 149.672C86.7606 148.952 87.2246 148.168 87.5126 147.32C87.8006 146.472 87.9446 145.632 87.9446 144.8V142.232ZM88.5446 142.232H91.0406V144.8C91.0406 145.6 91.1766 146.384 91.4486 147.152C91.7206 147.904 92.1606 148.592 92.7686 149.216C93.3926 149.84 94.1846 150.352 95.1446 150.752L93.4646 153.176C92.3126 152.712 91.3686 152.056 90.6326 151.208C89.9126 150.344 89.3846 149.368 89.0486 148.28C88.7126 147.176 88.5446 146.016 88.5446 144.8V142.232ZM99.8486 140.912H102.897V154.496H99.8486V140.912ZM97.1846 146.312H100.713V148.88H97.1846V146.312ZM95.1686 141.32H98.1446V153.8H95.1686V141.32ZM95.3606 154.808C96.9126 154.808 98.2566 154.976 99.3926 155.312C100.545 155.632 101.433 156.104 102.057 156.728C102.681 157.352 102.993 158.096 102.993 158.96C102.993 159.84 102.681 160.592 102.057 161.216C101.433 161.84 100.545 162.312 99.3926 162.632C98.2566 162.968 96.9126 163.136 95.3606 163.136C93.8086 163.136 92.4566 162.968 91.3046 162.632C90.1526 162.312 89.2646 161.84 88.6406 161.216C88.0166 160.592 87.7046 159.84 87.7046 158.96C87.7046 158.096 88.0166 157.352 88.6406 156.728C89.2646 156.104 90.1526 155.632 91.3046 155.312C92.4566 154.976 93.8086 154.808 95.3606 154.808ZM95.3606 157.208C93.9206 157.208 92.8086 157.352 92.0246 157.64C91.2566 157.928 90.8726 158.368 90.8726 158.96C90.8726 159.552 91.2566 160 92.0246 160.304C92.8086 160.592 93.9206 160.736 95.3606 160.736C96.3046 160.736 97.1046 160.672 97.7606 160.544C98.4326 160.4 98.9366 160.2 99.2726 159.944C99.6246 159.688 99.8006 159.36 99.8006 158.96C99.8006 158.368 99.4166 157.928 98.6486 157.64C97.8806 157.352 96.7846 157.208 95.3606 157.208ZM111.199 142.064H113.839V144.032C113.839 145.52 113.607 146.92 113.143 148.232C112.695 149.544 112.007 150.688 111.079 151.664C110.151 152.64 108.959 153.376 107.503 153.872L105.823 151.304C107.103 150.904 108.135 150.328 108.919 149.576C109.703 148.824 110.279 147.968 110.647 147.008C111.015 146.048 111.199 145.056 111.199 144.032V142.064ZM111.847 142.064H114.439V143.888C114.439 144.864 114.607 145.808 114.943 146.72C115.279 147.616 115.815 148.416 116.551 149.12C117.287 149.808 118.239 150.344 119.407 150.728L117.751 153.224C116.391 152.744 115.271 152.048 114.391 151.136C113.527 150.224 112.887 149.152 112.471 147.92C112.055 146.672 111.847 145.328 111.847 143.888V142.064ZM121.423 140.912H124.639V153.92H121.423V140.912ZM117.103 154.496C119.455 154.496 121.311 154.88 122.671 155.648C124.031 156.4 124.711 157.448 124.711 158.792C124.711 160.168 124.031 161.232 122.671 161.984C121.311 162.752 119.455 163.136 117.103 163.136C114.751 163.136 112.895 162.752 111.535 161.984C110.175 161.232 109.495 160.168 109.495 158.792C109.495 157.448 110.175 156.4 111.535 155.648C112.895 154.88 114.751 154.496 117.103 154.496ZM117.103 156.968C116.143 156.968 115.335 157.032 114.679 157.16C114.023 157.288 113.519 157.496 113.167 157.784C112.831 158.056 112.663 158.392 112.663 158.792C112.663 159.208 112.831 159.56 113.167 159.848C113.519 160.12 114.023 160.328 114.679 160.472C115.335 160.6 116.143 160.664 117.103 160.664C118.063 160.664 118.871 160.6 119.527 160.472C120.183 160.328 120.679 160.12 121.015 159.848C121.351 159.56 121.519 159.208 121.519 158.792C121.519 158.392 121.351 158.056 121.015 157.784C120.679 157.496 120.183 157.288 119.527 157.16C118.871 157.032 118.063 156.968 117.103 156.968ZM117.367 144.944H121.903V147.536H117.367V144.944ZM143.429 140.888H146.621V163.112H143.429V140.888ZM136.877 143.192H140.021C140.021 144.888 139.853 146.512 139.517 148.064C139.197 149.6 138.653 151.048 137.885 152.408C137.133 153.768 136.093 155.032 134.765 156.2C133.453 157.352 131.813 158.408 129.845 159.368L128.165 156.848C130.309 155.808 132.013 154.664 133.277 153.416C134.557 152.152 135.477 150.728 136.037 149.144C136.597 147.544 136.877 145.752 136.877 143.768V143.192ZM129.365 143.192H138.365V145.736H129.365V143.192Z" fill="white"/>
</svg>
