<svg width="200" height="200" viewBox="0 0 200 200" fill="none" xmlns="http://www.w3.org/2000/svg">
<path d="M135 28H65C59.5 28 55 32.5 55 38V108C55 113.5 59.5 118 65 118H135C140.5 118 145 113.5 145 108V38C145 32.5 140.5 28 135 28ZM87.5 70.5C87.5 74.5 84 78 80 78H75V88H67.5V58H80C84 58 87.5 61.5 87.5 65.5V70.5ZM112.5 80.5C112.5 84.5 109 88 105 88H92.5V58H105C109 58 112.5 61.5 112.5 65.5V80.5ZM132.5 65.5H125V70.5H132.5V78H125V88H117.5V58H132.5V65.5ZM100 65.5H105V80.5H100V65.5ZM75 65.5H80V70.5H75V65.5Z" fill="#333333"/>
<rect x="41" y="143" width="118" height="44" rx="10" fill="#333333"/>
<path d="M53.2177 174V156.545H59.7631C61.104 156.545 62.229 156.795 63.1381 157.295C64.0529 157.795 64.7433 158.483 65.2092 159.358C65.6808 160.227 65.9165 161.216 65.9165 162.324C65.9165 163.443 65.6808 164.437 65.2092 165.307C64.7376 166.176 64.0415 166.861 63.1211 167.361C62.2006 167.855 61.0671 168.102 59.7205 168.102H55.3825V165.503H59.2944C60.0785 165.503 60.7205 165.366 61.2205 165.094C61.7205 164.821 62.0898 164.446 62.3285 163.969C62.5728 163.491 62.695 162.943 62.695 162.324C62.695 161.705 62.5728 161.159 62.3285 160.688C62.0898 160.216 61.7177 159.849 61.212 159.588C60.712 159.321 60.0671 159.188 59.2773 159.188H56.3796V174H53.2177ZM74.5778 174H68.663V156.545H74.6971C76.43 156.545 77.9187 156.895 79.163 157.594C80.413 158.287 81.3732 159.284 82.0437 160.585C82.7141 161.886 83.0494 163.443 83.0494 165.256C83.0494 167.074 82.7113 168.636 82.0352 169.943C81.3647 171.25 80.396 172.253 79.1289 172.952C77.8675 173.651 76.3505 174 74.5778 174ZM71.8249 171.264H74.4244C75.6403 171.264 76.6545 171.043 77.467 170.599C78.2795 170.151 78.8903 169.483 79.2994 168.597C79.7085 167.705 79.913 166.591 79.913 165.256C79.913 163.92 79.7085 162.812 79.2994 161.932C78.8903 161.045 78.2852 160.384 77.484 159.946C76.6886 159.503 75.6999 159.281 74.5181 159.281H71.8249V171.264ZM86.0536 174V156.545H97.2354V159.196H89.2156V163.935H96.4684V166.585H89.2156V174H86.0536ZM109.748 165.192H112.94V171.408H109.748V165.192ZM117.812 165.192H121.004V171.408H117.812V165.192ZM105.332 170.952H125.468V173.544H105.332V170.952ZM115.364 154.992C116.964 154.992 118.388 155.24 119.636 155.736C120.9 156.232 121.884 156.928 122.588 157.824C123.308 158.704 123.668 159.752 123.668 160.968C123.668 162.168 123.308 163.216 122.588 164.112C121.884 164.992 120.9 165.68 119.636 166.176C118.388 166.672 116.964 166.92 115.364 166.92C113.78 166.92 112.356 166.672 111.092 166.176C109.844 165.68 108.86 164.992 108.14 164.112C107.42 163.216 107.06 162.168 107.06 160.968C107.06 159.752 107.42 158.704 108.14 157.824C108.86 156.928 109.844 156.232 111.092 155.736C112.356 155.24 113.78 154.992 115.364 154.992ZM115.364 157.464C114.34 157.464 113.436 157.608 112.652 157.896C111.884 158.168 111.284 158.56 110.852 159.072C110.42 159.584 110.204 160.216 110.204 160.968C110.204 161.688 110.42 162.312 110.852 162.84C111.284 163.352 111.884 163.752 112.652 164.04C113.436 164.312 114.34 164.448 115.364 164.448C116.404 164.448 117.308 164.312 118.076 164.04C118.86 163.752 119.46 163.352 119.876 162.84C120.308 162.312 120.524 161.688 120.524 160.968C120.524 160.216 120.308 159.584 119.876 159.072C119.46 158.56 118.86 158.168 118.076 157.896C117.308 157.608 116.404 157.464 115.364 157.464ZM143.922 156.792H147.738V159.408H143.922V156.792ZM143.922 161.616H147.738V164.208H143.922V161.616ZM141.69 153.912H144.882V167.016H141.69V153.912ZM130.05 167.928H144.882V176.136H141.69V170.448H130.05V167.928ZM133.578 155.112C134.73 155.112 135.762 155.352 136.674 155.832C137.586 156.296 138.306 156.936 138.834 157.752C139.362 158.552 139.626 159.48 139.626 160.536C139.626 161.608 139.362 162.552 138.834 163.368C138.306 164.184 137.586 164.824 136.674 165.288C135.762 165.752 134.73 165.984 133.578 165.984C132.442 165.984 131.418 165.752 130.506 165.288C129.594 164.824 128.874 164.184 128.346 163.368C127.818 162.552 127.554 161.608 127.554 160.536C127.554 159.48 127.818 158.552 128.346 157.752C128.874 156.936 129.594 156.296 130.506 155.832C131.418 155.352 132.442 155.112 133.578 155.112ZM133.578 157.8C133.034 157.8 132.538 157.912 132.09 158.136C131.642 158.344 131.29 158.656 131.034 159.072C130.794 159.472 130.674 159.96 130.674 160.536C130.674 161.128 130.794 161.632 131.034 162.048C131.29 162.448 131.642 162.76 132.09 162.984C132.538 163.192 133.034 163.296 133.578 163.296C134.154 163.296 134.658 163.192 135.09 162.984C135.522 162.76 135.866 162.448 136.122 162.048C136.378 161.632 136.506 161.128 136.506 160.536C136.506 159.96 136.378 159.472 136.122 159.072C135.866 158.656 135.522 158.344 135.09 158.136C134.658 157.912 134.154 157.8 133.578 157.8Z" fill="white"/>
</svg>
