<svg width="200" height="200" viewBox="0 0 200 200" fill="none" xmlns="http://www.w3.org/2000/svg">
<path fill-rule="evenodd" clip-rule="evenodd" d="M56.2141 107.271V38.3848C56.2141 34.0001 57.9559 29.7949 61.0564 26.6945C64.1569 23.594 68.362 21.8522 72.7467 21.8522H124.182C128.566 21.8522 132.771 23.594 135.872 26.6945C138.972 29.7949 140.714 34.0001 140.714 38.3848V95.3304C140.714 96.792 140.133 98.1937 139.1 99.2272C138.067 100.261 136.665 100.841 135.203 100.841H133.366V113.7H135.203C136.665 113.7 138.067 114.281 139.1 115.314C140.133 116.348 140.714 117.749 140.714 119.211C140.714 120.672 140.133 122.074 139.1 123.108C138.067 124.141 136.665 124.722 135.203 124.722H73.6652C69.0369 124.722 64.5981 122.883 61.3254 119.61C58.0527 116.338 56.2141 111.899 56.2141 107.271ZM122.345 100.841H73.6652C71.96 100.841 70.3247 101.519 69.119 102.724C67.9132 103.93 67.2359 105.565 67.2359 107.271C67.2359 108.976 67.9132 110.611 69.119 111.817C70.3247 113.023 71.96 113.7 73.6652 113.7H122.345V100.841ZM126.459 56.916C126.15 56.3192 125.683 55.8186 125.109 55.4688C124.535 55.119 123.876 54.9334 123.204 54.9321H106.179C105.205 54.9321 104.27 55.3192 103.581 56.0082C102.892 56.6971 102.505 57.6316 102.505 58.606C102.505 59.5804 102.892 60.5149 103.581 61.2039C104.27 61.8928 105.205 62.2799 106.179 62.2799H116.099L102.131 82.0015C101.741 82.5513 101.51 83.1977 101.464 83.8698C101.417 84.542 101.556 85.214 101.865 85.8125C102.175 86.411 102.643 86.9129 103.218 87.2632C103.794 87.6136 104.455 87.7989 105.129 87.7989H124.262C125.237 87.7989 126.171 87.4118 126.86 86.7228C127.549 86.0339 127.936 85.0994 127.936 84.125C127.936 83.1506 127.549 82.2161 126.86 81.5272C126.171 80.8382 125.237 80.4511 124.262 80.4511H112.234L126.195 60.7295C126.586 60.18 126.818 59.5336 126.866 58.8609C126.914 58.1883 126.768 57.5154 126.459 56.916ZM89.7569 41.177C89.3147 39.8611 88.4704 38.7173 87.3432 37.907C86.216 37.0966 84.8628 36.6607 83.4745 36.6607C82.0863 36.6607 80.7331 37.0966 79.6059 37.907C78.4787 38.7173 77.6344 39.8611 77.1922 41.177L72.2177 56.093L72.1662 56.2547L69.352 64.6753C69.1991 65.1336 69.1379 65.6176 69.172 66.0996C69.2061 66.5816 69.3348 67.0521 69.5508 67.4844C69.7667 67.9166 70.0657 68.3021 70.4306 68.6188C70.7955 68.9355 71.2193 69.1772 71.6776 69.3302C72.6033 69.639 73.6137 69.5675 74.4867 69.1314C74.9189 68.9155 75.3044 68.6165 75.6211 68.2516C75.9378 67.8866 76.1795 67.4629 76.3325 67.0046L78.3164 61.0087H88.618L90.6166 67.0046C90.9255 67.9293 91.5891 68.6934 92.4613 69.1288C93.3336 69.5643 94.3431 69.6354 95.2678 69.3265C96.1925 69.0176 96.9566 68.354 97.3921 67.4818C97.8275 66.6095 97.8986 65.6 97.5897 64.6753L94.7829 56.2547L94.7241 56.093L89.7569 41.177ZM80.7559 53.6536L83.4599 45.5563L86.1565 53.6536H80.7559Z" fill="#333333"/>
<rect x="68" y="143" width="65" height="44" rx="10" fill="#333333"/>
<path d="M89.8939 159.792H95.6059V162.36H89.8939V159.792ZM94.7899 153.912H98.0059V170.304H94.7899V153.912ZM83.2939 173.184H98.4859V175.752H83.2939V173.184ZM83.2939 168.696H86.4859V174.648H83.2939V168.696ZM80.3179 155.376H83.4859V158.736H87.7099V155.376H90.8539V166.848H80.3179V155.376ZM83.4859 161.184V164.304H87.7099V161.184H83.4859ZM111.3 156.888H117.876V159.432H111.3V156.888ZM111.3 161.712H117.876V164.256H111.3V161.712ZM104.916 168.072H120.084V176.136H116.868V170.592H104.916V168.072ZM116.868 153.912H120.084V167.064H116.868V153.912ZM107.628 155.04C108.732 155.04 109.724 155.28 110.604 155.76C111.484 156.224 112.18 156.872 112.692 157.704C113.22 158.536 113.484 159.488 113.484 160.56C113.484 161.616 113.22 162.568 112.692 163.416C112.18 164.248 111.484 164.904 110.604 165.384C109.724 165.848 108.732 166.08 107.628 166.08C106.524 166.08 105.524 165.848 104.628 165.384C103.748 164.904 103.044 164.248 102.516 163.416C102.004 162.568 101.748 161.616 101.748 160.56C101.748 159.488 102.004 158.536 102.516 157.704C103.044 156.872 103.748 156.224 104.628 155.76C105.524 155.28 106.524 155.04 107.628 155.04ZM107.604 157.776C107.076 157.776 106.596 157.888 106.164 158.112C105.732 158.32 105.388 158.632 105.132 159.048C104.892 159.464 104.772 159.968 104.772 160.56C104.772 161.136 104.892 161.64 105.132 162.072C105.388 162.488 105.732 162.808 106.164 163.032C106.596 163.256 107.076 163.368 107.604 163.368C108.148 163.368 108.628 163.256 109.044 163.032C109.476 162.808 109.812 162.488 110.052 162.072C110.308 161.64 110.436 161.136 110.436 160.56C110.436 159.968 110.308 159.464 110.052 159.048C109.812 158.632 109.476 158.32 109.044 158.112C108.628 157.888 108.148 157.776 107.604 157.776Z" fill="white"/>
</svg>
