<svg width="200" height="200" viewBox="0 0 200 200" fill="none" xmlns="http://www.w3.org/2000/svg">
<path d="M82 80.5L94.5 95.5L112 73L134.5 103H64.5M144.5 108V38C144.5 35.3478 143.446 32.8043 141.571 30.9289C139.696 29.0536 137.152 28 134.5 28H64.5C61.8478 28 59.3043 29.0536 57.4289 30.9289C55.5536 32.8043 54.5 35.3478 54.5 38V108C54.5 110.652 55.5536 113.196 57.4289 115.071C59.3043 116.946 61.8478 118 64.5 118H134.5C137.152 118 139.696 116.946 141.571 115.071C143.446 113.196 144.5 110.652 144.5 108Z" fill="#333333"/>
<rect x="31" y="143" width="137" height="44" rx="10" fill="#333333"/>
<path d="M57.5521 153.864H60.7441V176.16H57.5521V153.864ZM48.7681 155.424C49.9041 155.424 50.9121 155.752 51.7921 156.408C52.6721 157.048 53.3601 157.968 53.8561 159.168C54.3681 160.352 54.6241 161.752 54.6241 163.368C54.6241 165 54.3681 166.416 53.8561 167.616C53.3601 168.8 52.6721 169.72 51.7921 170.376C50.9121 171.016 49.9041 171.336 48.7681 171.336C47.6481 171.336 46.6481 171.016 45.7681 170.376C44.8881 169.72 44.1921 168.8 43.6801 167.616C43.1841 166.416 42.9361 165 42.9361 163.368C42.9361 161.752 43.1841 160.352 43.6801 159.168C44.1921 157.968 44.8881 157.048 45.7681 156.408C46.6481 155.752 47.6481 155.424 48.7681 155.424ZM48.7681 158.328C48.2241 158.328 47.7441 158.52 47.3281 158.904C46.9121 159.288 46.5841 159.856 46.3441 160.608C46.1201 161.344 46.0081 162.264 46.0081 163.368C46.0081 164.456 46.1201 165.384 46.3441 166.152C46.5841 166.904 46.9121 167.472 47.3281 167.856C47.7441 168.24 48.2241 168.432 48.7681 168.432C49.3281 168.432 49.8161 168.24 50.2321 167.856C50.6481 167.472 50.9681 166.904 51.1921 166.152C51.4321 165.384 51.5521 164.456 51.5521 163.368C51.5521 162.264 51.4321 161.344 51.1921 160.608C50.9681 159.856 50.6481 159.288 50.2321 158.904C49.8161 158.52 49.3281 158.328 48.7681 158.328ZM65.4703 155.88H76.1503V170.832H65.4703V155.88ZM73.0303 158.4H68.6143V168.312H73.0303V158.4ZM79.6303 153.864H82.8223V176.16H79.6303V153.864ZM91.8204 157.416H94.3644V159.912C94.3644 161.192 94.2284 162.448 93.9564 163.68C93.7004 164.912 93.3084 166.072 92.7804 167.16C92.2684 168.232 91.6204 169.184 90.8364 170.016C90.0524 170.832 89.1404 171.48 88.1004 171.96L86.2764 169.44C87.2044 169.008 88.0124 168.448 88.7004 167.76C89.4044 167.072 89.9804 166.304 90.4284 165.456C90.8924 164.592 91.2364 163.688 91.4604 162.744C91.7004 161.784 91.8204 160.84 91.8204 159.912V157.416ZM92.5164 157.416H95.0364V159.912C95.0364 160.792 95.1484 161.688 95.3724 162.6C95.6124 163.496 95.9564 164.352 96.4044 165.168C96.8524 165.968 97.4204 166.688 98.1084 167.328C98.7964 167.968 99.6124 168.48 100.556 168.864L98.8044 171.408C97.7484 170.944 96.8284 170.32 96.0444 169.536C95.2604 168.752 94.6044 167.848 94.0764 166.824C93.5484 165.8 93.1564 164.704 92.9004 163.536C92.6444 162.352 92.5164 161.144 92.5164 159.912V157.416ZM87.1644 156.024H99.6444V158.664H87.1644V156.024ZM101.708 153.912H104.9V176.136H101.708V153.912ZM118.484 155.232H120.98V157.8C120.98 159.064 120.804 160.296 120.452 161.496C120.1 162.68 119.548 163.744 118.796 164.688C118.044 165.632 117.06 166.36 115.844 166.872L114.188 164.424C115.212 163.96 116.036 163.376 116.66 162.672C117.3 161.952 117.764 161.168 118.052 160.32C118.34 159.472 118.484 158.632 118.484 157.8V155.232ZM119.084 155.232H121.58V157.8C121.58 158.6 121.716 159.384 121.988 160.152C122.26 160.904 122.7 161.592 123.308 162.216C123.932 162.84 124.724 163.352 125.684 163.752L124.004 166.176C122.852 165.712 121.908 165.056 121.172 164.208C120.452 163.344 119.924 162.368 119.588 161.28C119.252 160.176 119.084 159.016 119.084 157.8V155.232ZM130.388 153.912H133.436V167.496H130.388V153.912ZM127.724 159.312H131.252V161.88H127.724V159.312ZM125.708 154.32H128.684V166.8H125.708V154.32ZM125.9 167.808C127.452 167.808 128.796 167.976 129.932 168.312C131.084 168.632 131.972 169.104 132.596 169.728C133.22 170.352 133.532 171.096 133.532 171.96C133.532 172.84 133.22 173.592 132.596 174.216C131.972 174.84 131.084 175.312 129.932 175.632C128.796 175.968 127.452 176.136 125.9 176.136C124.348 176.136 122.996 175.968 121.844 175.632C120.692 175.312 119.804 174.84 119.18 174.216C118.556 173.592 118.244 172.84 118.244 171.96C118.244 171.096 118.556 170.352 119.18 169.728C119.804 169.104 120.692 168.632 121.844 168.312C122.996 167.976 124.348 167.808 125.9 167.808ZM125.9 170.208C124.46 170.208 123.348 170.352 122.564 170.64C121.796 170.928 121.412 171.368 121.412 171.96C121.412 172.552 121.796 173 122.564 173.304C123.348 173.592 124.46 173.736 125.9 173.736C126.844 173.736 127.644 173.672 128.3 173.544C128.972 173.4 129.476 173.2 129.812 172.944C130.164 172.688 130.34 172.36 130.34 171.96C130.34 171.368 129.956 170.928 129.188 170.64C128.42 170.352 127.324 170.208 125.9 170.208ZM141.738 155.064H144.378V157.032C144.378 158.52 144.146 159.92 143.682 161.232C143.234 162.544 142.546 163.688 141.618 164.664C140.69 165.64 139.498 166.376 138.042 166.872L136.362 164.304C137.642 163.904 138.674 163.328 139.458 162.576C140.242 161.824 140.818 160.968 141.186 160.008C141.554 159.048 141.738 158.056 141.738 157.032V155.064ZM142.386 155.064H144.978V156.888C144.978 157.864 145.146 158.808 145.482 159.72C145.818 160.616 146.354 161.416 147.09 162.12C147.826 162.808 148.778 163.344 149.946 163.728L148.29 166.224C146.93 165.744 145.81 165.048 144.93 164.136C144.066 163.224 143.426 162.152 143.01 160.92C142.594 159.672 142.386 158.328 142.386 156.888V155.064ZM151.962 153.912H155.178V166.92H151.962V153.912ZM147.642 167.496C149.994 167.496 151.85 167.88 153.21 168.648C154.57 169.4 155.25 170.448 155.25 171.792C155.25 173.168 154.57 174.232 153.21 174.984C151.85 175.752 149.994 176.136 147.642 176.136C145.29 176.136 143.434 175.752 142.074 174.984C140.714 174.232 140.034 173.168 140.034 171.792C140.034 170.448 140.714 169.4 142.074 168.648C143.434 167.88 145.29 167.496 147.642 167.496ZM147.642 169.968C146.682 169.968 145.874 170.032 145.218 170.16C144.562 170.288 144.058 170.496 143.706 170.784C143.37 171.056 143.202 171.392 143.202 171.792C143.202 172.208 143.37 172.56 143.706 172.848C144.058 173.12 144.562 173.328 145.218 173.472C145.874 173.6 146.682 173.664 147.642 173.664C148.602 173.664 149.41 173.6 150.066 173.472C150.722 173.328 151.218 173.12 151.554 172.848C151.89 172.56 152.058 172.208 152.058 171.792C152.058 171.392 151.89 171.056 151.554 170.784C151.218 170.496 150.722 170.288 150.066 170.16C149.41 170.032 148.602 169.968 147.642 169.968ZM147.906 157.944H152.442V160.536H147.906V157.944Z" fill="white"/>
</svg>
