<svg width="200" height="60" viewBox="0 0 200 60" fill="none" xmlns="http://www.w3.org/2000/svg">
<path d="M50 50C50 30 30 45 35 27.5L20 30C15 50 50 40 50 50ZM15 30C-2.86102e-06 15 60 15 40 30H15ZM30 20C15 5 45 5 30 20V20Z" fill="#E95420"/>
<path d="M56.8963 41V19.1818H61.5092V28.8018H61.7969L69.6484 19.1818H75.1776L67.081 28.951L75.2734 41H69.755L63.7784 32.0298L61.5092 34.7997V41H56.8963ZM78.5201 41V24.6364H83.0584V41H78.5201ZM80.7999 22.527C80.1252 22.527 79.5463 22.3033 79.0634 21.8558C78.5875 21.4013 78.3496 20.858 78.3496 20.2259C78.3496 19.6009 78.5875 19.0646 79.0634 18.6172C79.5463 18.1626 80.1252 17.9354 80.7999 17.9354C81.4746 17.9354 82.0499 18.1626 82.5257 18.6172C83.0087 19.0646 83.2502 19.6009 83.2502 20.2259C83.2502 20.858 83.0087 21.4013 82.5257 21.8558C82.0499 22.3033 81.4746 22.527 80.7999 22.527ZM86.7791 19.1818H92.468L98.4766 33.8409H98.7322L104.741 19.1818H110.43V41H105.955V26.799H105.774L100.128 40.8935H97.081L91.4347 26.7457H91.2536V41H86.7791V19.1818ZM114.145 41V24.6364H118.683V41H114.145ZM116.425 22.527C115.75 22.527 115.171 22.3033 114.688 21.8558C114.213 21.4013 113.975 20.858 113.975 20.2259C113.975 19.6009 114.213 19.0646 114.688 18.6172C115.171 18.1626 115.75 17.9354 116.425 17.9354C117.1 17.9354 117.675 18.1626 118.151 18.6172C118.634 19.0646 118.875 19.6009 118.875 20.2259C118.875 20.858 118.634 21.4013 118.151 21.8558C117.675 22.3033 117.1 22.527 116.425 22.527ZM136.871 26.2344C136.722 25.7159 136.513 25.2578 136.243 24.8601C135.973 24.4553 135.643 24.1143 135.252 23.8374C134.869 23.5533 134.428 23.3366 133.931 23.1875C133.441 23.0384 132.898 22.9638 132.301 22.9638C131.186 22.9638 130.206 23.2408 129.361 23.7947C128.523 24.3487 127.869 25.1548 127.401 26.2131C126.932 27.2642 126.697 28.5497 126.697 30.0696C126.697 31.5895 126.928 32.8821 127.39 33.9474C127.852 35.0128 128.505 35.826 129.35 36.3871C130.195 36.9411 131.193 37.218 132.344 37.218C133.388 37.218 134.279 37.0334 135.018 36.6641C135.763 36.2876 136.332 35.7585 136.722 35.0767C137.12 34.3949 137.319 33.5888 137.319 32.6584L138.256 32.7969H132.631V29.3239H141.761V32.0724C141.761 33.9901 141.357 35.6378 140.547 37.0156C139.737 38.3864 138.622 39.4446 137.202 40.1903C135.781 40.929 134.155 41.2983 132.322 41.2983C130.277 41.2983 128.48 40.8473 126.932 39.9453C125.384 39.0362 124.176 37.7472 123.31 36.0781C122.45 34.402 122.021 32.4134 122.021 30.1122C122.021 28.3437 122.276 26.767 122.788 25.3821C123.306 23.9901 124.031 22.8111 124.961 21.8452C125.891 20.8793 126.974 20.1442 128.21 19.6399C129.446 19.1357 130.785 18.8835 132.227 18.8835C133.462 18.8835 134.613 19.0646 135.678 19.4268C136.744 19.782 137.688 20.2862 138.512 20.9396C139.343 21.593 140.021 22.3707 140.547 23.2727C141.072 24.1676 141.41 25.1548 141.559 26.2344H136.871ZM150.685 41.2642C149.395 41.2642 148.285 40.9886 147.353 40.4375C146.427 39.8807 145.711 39.0994 145.205 38.0938C144.705 37.0824 144.455 35.8977 144.455 34.5398C144.455 33.1989 144.705 32.017 145.205 30.9943C145.711 29.9716 146.415 29.1733 147.319 28.5994C148.228 28.0256 149.29 27.7386 150.506 27.7386C151.245 27.7386 151.961 27.8608 152.654 28.1051C153.347 28.3494 153.969 28.733 154.52 29.2557C155.072 29.7784 155.506 30.4574 155.824 31.2926C156.143 32.1222 156.302 33.1307 156.302 34.3182V35.2216H145.895V33.3125H153.805C153.805 32.642 153.668 32.0483 153.395 31.5312C153.123 31.0085 152.739 30.5966 152.245 30.2955C151.756 29.9943 151.182 29.8438 150.523 29.8438C149.807 29.8438 149.182 30.0199 148.648 30.3722C148.12 30.7187 147.711 31.1733 147.421 31.7358C147.137 32.2926 146.995 32.8977 146.995 33.5511V35.0426C146.995 35.9176 147.148 36.6619 147.455 37.2756C147.768 37.8892 148.202 38.358 148.759 38.6818C149.316 39 149.966 39.1591 150.711 39.1591C151.194 39.1591 151.634 39.0909 152.032 38.9545C152.43 38.8125 152.773 38.6023 153.063 38.3239C153.353 38.0455 153.574 37.7017 153.728 37.2926L156.14 37.7273C155.947 38.4375 155.6 39.0597 155.1 39.5938C154.606 40.1222 153.983 40.5341 153.233 40.8295C152.489 41.1193 151.64 41.2642 150.685 41.2642ZM161.677 33.2273V41H159.129V27.9091H161.575V30.0398H161.737C162.038 29.3466 162.51 28.7898 163.152 28.3693C163.8 27.9489 164.615 27.7386 165.598 27.7386C166.49 27.7386 167.271 27.9261 167.942 28.3011C168.612 28.6705 169.132 29.2216 169.501 29.9545C169.871 30.6875 170.055 31.5937 170.055 32.6733V41H167.507V32.9801C167.507 32.0312 167.26 31.2898 166.765 30.7557C166.271 30.2159 165.592 29.946 164.729 29.946C164.138 29.946 163.612 30.0739 163.152 30.3295C162.697 30.5852 162.336 30.9602 162.069 31.4545C161.808 31.9432 161.677 32.5341 161.677 33.2273ZM173.473 41V27.9091H176.021V41H173.473ZM174.76 25.8892C174.317 25.8892 173.936 25.7415 173.618 25.446C173.305 25.1449 173.149 24.7869 173.149 24.3722C173.149 23.9517 173.305 23.5937 173.618 23.2983C173.936 22.9972 174.317 22.8466 174.76 22.8466C175.203 22.8466 175.581 22.9972 175.893 23.2983C176.211 23.5937 176.371 23.9517 176.371 24.3722C176.371 24.7869 176.211 25.1449 175.893 25.446C175.581 25.7415 175.203 25.8892 174.76 25.8892ZM185.091 41.2642C183.802 41.2642 182.691 40.9886 181.759 40.4375C180.833 39.8807 180.117 39.0994 179.611 38.0938C179.111 37.0824 178.861 35.8977 178.861 34.5398C178.861 33.1989 179.111 32.017 179.611 30.9943C180.117 29.9716 180.822 29.1733 181.725 28.5994C182.634 28.0256 183.697 27.7386 184.912 27.7386C185.651 27.7386 186.367 27.8608 187.06 28.1051C187.753 28.3494 188.376 28.733 188.927 29.2557C189.478 29.7784 189.912 30.4574 190.231 31.2926C190.549 32.1222 190.708 33.1307 190.708 34.3182V35.2216H180.302V33.3125H188.211C188.211 32.642 188.074 32.0483 187.802 31.5312C187.529 31.0085 187.145 30.5966 186.651 30.2955C186.162 29.9943 185.589 29.8438 184.93 29.8438C184.214 29.8438 183.589 30.0199 183.055 30.3722C182.526 30.7187 182.117 31.1733 181.827 31.7358C181.543 32.2926 181.401 32.8977 181.401 33.5511V35.0426C181.401 35.9176 181.555 36.6619 181.861 37.2756C182.174 37.8892 182.608 38.358 183.165 38.6818C183.722 39 184.373 39.1591 185.117 39.1591C185.6 39.1591 186.04 39.0909 186.438 38.9545C186.836 38.8125 187.18 38.6023 187.469 38.3239C187.759 38.0455 187.981 37.7017 188.134 37.2926L190.546 37.7273C190.353 38.4375 190.006 39.0597 189.506 39.5938C189.012 40.1222 188.39 40.5341 187.64 40.8295C186.895 41.1193 186.046 41.2642 185.091 41.2642Z" fill="#E95420"/>
</svg>
